<svg version="1.1" viewBox="0.0 0.0 960.0 540.0" fill="none" stroke="none" stroke-linecap="square" stroke-miterlimit="10" xmlns:xlink="http://www.w3.org/1999/xlink" xmlns="http://www.w3.org/2000/svg"><clipPath id="g33d079c3c0_0_0.0"><path d="m0 0l960.0 0l0 540.0l-960.0 0l0 -540.0z" clip-rule="nonzero"/></clipPath><g clip-path="url(#g33d079c3c0_0_0.0)"><path fill="#000000" fill-opacity="0.0" d="m0 0l960.0 0l0 540.0l-960.0 0z" fill-rule="evenodd"/><path fill="#eeeeee" d="m52.99475 143.39493l0 0c0 -16.87909 13.683205 -30.562286 30.562294 -30.562286l122.24549 0l0 0c8.105621 0 15.879257 3.2199402 21.61081 8.951485c5.731537 5.7315445 8.951477 13.50518 8.951477 21.610802l0 225.14313c0 16.87909 -13.683197 30.562286 -30.562286 30.562286l-122.24549 0c-16.87909 0 -30.562294 -13.683197 -30.562294 -30.562286z" fill-rule="evenodd"/><path stroke="#434343" stroke-width="3.0" stroke-linejoin="round" stroke-linecap="butt" d="m52.99475 143.39493l0 0c0 -16.87909 13.683205 -30.562286 30.562294 -30.562286l122.24549 0l0 0c8.105621 0 15.879257 3.2199402 21.61081 8.951485c5.731537 5.7315445 8.951477 13.50518 8.951477 21.610802l0 225.14313c0 16.87909 -13.683197 30.562286 -30.562286 30.562286l-122.24549 0c-16.87909 0 -30.562294 -13.683197 -30.562294 -30.562286z" fill-rule="evenodd"/><g filter="url(#shadowFilter-g33d079c3c0_0_0.1)"><use xlink:href="#g33d079c3c0_0_0.1" transform="matrix(1.0 0.0 0.0 1.0 0.0 2.0)"/></g><defs><filter id="shadowFilter-g33d079c3c0_0_0.1" filterUnits="userSpaceOnUse"><feGaussianBlur in="SourceAlpha" stdDeviation="2.0" result="blur"/><feComponentTransfer in="blur" color-interpolation-filters="sRGB"><feFuncR type="linear" slope="0" intercept="0.0"/><feFuncG type="linear" slope="0" intercept="0.0"/><feFuncB type="linear" slope="0" intercept="0.0"/><feFuncA type="linear" slope="0.5" intercept="0"/></feComponentTransfer></filter></defs><g id="g33d079c3c0_0_0.1"><path fill="#b7b7b7" d="m91.86089 160.27643l105.637794 0l0 64.28346l-105.637794 0z" fill-rule="evenodd"/><path stroke="#434343" stroke-width="1.0" stroke-linejoin="round" stroke-linecap="butt" d="m91.86089 160.27643l105.637794 0l0 64.28346l-105.637794 0z" fill-rule="evenodd"/><path fill="#434343" d="m110.48057 198.27817l0 -11.375l3.203125 0q1.484375 0 2.625 0.65625q1.140625 0.65625 1.765625 1.875q0.625 1.203125 0.625 2.765625l0 0.734375q0 1.609375 -0.625 2.828125q-0.609375 1.203125 -1.765625 1.859375q-1.15625 0.640625 -2.6875 0.65625l-3.140625 0zm1.5 -10.140625l0 8.90625l1.578125 0q1.734375 0 2.6875 -1.078125q0.96875 -1.078125 0.96875 -3.0625l0 -0.671875q0 -1.9375 -0.90625 -3.0q-0.90625 -1.078125 -2.578125 -1.09375l-1.75 0zm8.3828125 5.828125q0 -1.234375 0.484375 -2.21875q0.484375 -1.0 1.359375 -1.53125q0.875 -0.546875 1.984375 -0.546875q1.734375 0 2.796875 1.203125q1.0625076 1.1875 1.0625076 3.171875l0 0.09375q0 1.234375 -0.46875763 2.21875q-0.46875 0.984375 -1.359375 1.53125q-0.875 0.546875 -2.015625 0.546875q-1.71875 0 -2.78125 -1.1875q-1.0625 -1.203125 -1.0625 -3.171875l0 -0.109375zm1.453125 0.171875q0 1.40625 0.640625 2.265625q0.65625 0.84375 1.75 0.84375q1.109375 0 1.75 -0.859375q0.65625 -0.859375 0.65625 -2.421875q0 -1.390625 -0.671875 -2.25q-0.65625 -0.859375 -1.75 -0.859375q-1.0625 0 -1.71875 0.859375q-0.65625 0.84375 -0.65625 2.421875zm11.437508 3.109375q0.78125 0 1.359375 -0.46875q0.578125 -0.46875 0.640625 -1.171875l1.359375 0q-0.03125 0.734375 -0.5 1.390625q-0.453125 0.65625 -1.234375 1.046875q-0.765625 0.390625 -1.625 0.390625q-1.71875 0 -2.75 -1.15625q-1.015625 -1.15625 -1.015625 -3.15625l0 -0.234375q0 -1.234375 0.453125 -2.1875q0.453125 -0.96875 1.296875 -1.5q0.859375 -0.53125 2.015625 -0.53125q1.421875 0 2.359375 0.859375q0.9375 0.84375 1.0 2.203125l-1.359375 0q-0.0625 -0.828125 -0.625 -1.34375q-0.5625 -0.53125 -1.375 -0.53125q-1.109375 0 -1.71875 0.796875q-0.59375 0.78125 -0.59375 2.28125l0 0.28125q0 1.453125 0.59375 2.25q0.609375 0.78125 1.71875 0.78125zm7.34375 -2.890625l-0.90625 0.953125l0 2.96875l-1.4375 0l0 -12.0l1.4375 0l0 7.25l0.78125 -0.921875l2.625 -2.78125l1.765625 0l-3.296875 3.53125l3.671875 4.921875l-1.6875 0l-2.953125 -3.921875zm9.109375 4.078125q-1.71875 0 -2.796875 -1.125q-1.078125 -1.140625 -1.078125 -3.03125l0 -0.265625q0 -1.25 0.46875 -2.234375q0.484375 -1.0 1.34375 -1.546875q0.875 -0.5625 1.875 -0.5625q1.65625 0 2.5625 1.09375q0.921875 1.078125 0.921875 3.09375l0 0.609375l-5.734375 0q0.03125 1.25 0.734375 2.015625q0.703125 0.765625 1.78125 0.765625q0.765625 0 1.296875 -0.3125q0.53125 -0.3125 0.921875 -0.828125l0.890625 0.6875q-1.0625 1.640625 -3.1875 1.640625zm-0.1875 -7.578125q-0.875 0 -1.46875 0.640625q-0.59375 0.625 -0.734375 1.78125l4.234375 0l0 -0.109375q-0.0625 -1.109375 -0.59375 -1.703125q-0.53125 -0.609375 -1.4375 -0.609375zm9.242172 0.265625q-0.328125 -0.0625 -0.71875 -0.0625q-1.421875 0 -1.921875 1.21875l0 6.0l-1.4531097 0l0 -8.453125l1.4062347 0l0.03125 0.96875q0.703125 -1.125 2.015625 -1.125q0.421875 0 0.640625 0.109375l0 1.34375zm1.8046875 7.15625l0 -7.34375l-1.328125 0l0 -1.109375l1.328125 0l0 -0.71875q0 -1.421875 0.8125 -2.203125q0.8125 -0.796875 2.28125 -0.796875q0.875 0 2.21875 0.484375l-0.25 1.21875q-0.96875 -0.390625 -1.859375 -0.390625q-0.921875 0 -1.34375 0.421875q-0.40625 0.40625 -0.40625 1.25l0 0.734375l1.734375 0l0 1.109375l-1.734375 0l0 7.34375l-1.453125 0zm6.03125 0l-1.453125 0l0 -8.453125l1.453125 0l0 8.453125zm3.921875 0l-1.453125 0l0 -12.0l1.453125 0l0 12.0zm5.8203125 0.15625q-1.71875 0 -2.796875 -1.125q-1.078125 -1.140625 -1.078125 -3.03125l0 -0.265625q0 -1.25 0.46875 -2.234375q0.484375 -1.0 1.34375 -1.546875q0.875 -0.5625 1.875 -0.5625q1.65625 0 2.5625 1.09375q0.921875 1.078125 0.921875 3.09375l0 0.609375l-5.734375 0q0.03125 1.25 0.734375 2.015625q0.703125 0.765625 1.78125 0.765625q0.765625 0 1.296875 -0.3125q0.53125 -0.3125 0.921875 -0.828125l0.890625 0.6875q-1.0625 1.640625 -3.1875 1.640625zm-0.1875 -7.578125q-0.875 0 -1.46875 0.640625q-0.59375 0.625 -0.734375 1.78125l4.234375 0l0 -0.109375q-0.0625 -1.109375 -0.59375 -1.703125q-0.53125 -0.609375 -1.4375 -0.609375z" fill-rule="nonzero"/></g><path fill="#000000" fill-opacity="0.0" d="m31.52179 163.13148l79.37008 -66.92913l25.41732 30.236221l-79.37007 66.92913z" fill-rule="evenodd"/><path fill="#434343" d="m67.116806 164.75262l-3.6671066 3.0923004l1.0666885 2.6772919l-2.2217636 1.8735046l-4.761463 -13.337387l1.9350853 -1.6317749l12.334579 6.9513397l-2.2217636 1.8735199l-2.4642563 -1.4987946zm-4.521454 0.91041565l2.5323334 -2.1353912l-4.465313 -2.7136993l1.9329796 4.8490906zm9.497177 -11.196976q-0.4463501 0.29463196 -0.75691223 0.55651855q-1.1467209 0.96698 -0.86159515 2.0346222l4.1524124 4.939682l-2.0067596 1.6921997l-6.3442383 -7.547058l1.8992462 -1.6015472l0.813797 0.8466644q-0.2674179 -1.5322266 0.80763245 -2.4387665q0.3344574 -0.2820282 0.7034607 -0.45013428l1.5929565 1.9678192zm0.5759506 -6.883011l1.5584106 1.8538818l1.2900543 -1.0878448l1.2467346 1.4830933l-1.290062 1.0878448l3.167099 3.7675476q0.3518982 0.41862488 0.65799713 0.4670868q0.31804657 0.038391113 0.77194977 -0.3443756q0.33446503 -0.2820282 0.55703735 -0.5514679l1.2869415 1.5309296q-0.44643402 0.68304443 -1.0675735 1.2068176q-2.1262054 1.7929382 -3.9617538 -0.31777954l-3.4184494 -4.066559l-1.098938 0.9266968l-1.246727 -1.4831085l1.0989304 -0.9266815l-1.5584106 -1.8538666l2.0067596 -1.692215zm12.447014 5.568878l-2.0306396 1.7123566l-6.344246 -7.547058l2.0306473 -1.7123566l6.3442383 7.547058zm-10.121239 -7.6936035q-0.3820572 -0.4544983 -0.32473755 -0.9933624q0.0472641 -0.550827 0.57284546 -0.9940338q0.5136337 -0.43312073 1.0636139 -0.3859253q0.55187225 0.025161743 0.9339371 0.47966003q0.3820572 0.4544983 0.32284546 1.0153961q-0.05731964 0.5388794 -0.57095337 0.9720001q-0.5136337 0.43312073 -1.065506 0.40795898q-0.54998016 -0.047195435 -0.932045 -0.5016937zm12.325966 5.8344727l-5.097519 -6.063965l-1.1228256 0.9468231l-1.246727 -1.4830933l1.1228256 -0.9468231l-0.53287506 -0.63391113q-1.0758057 -1.2797699 -0.9303131 -2.587906q0.13544464 -1.3200989 1.4374466 -2.4180145q0.41807556 -0.35255432 1.1479187 -0.72273254l1.2932205 1.5869751q-0.3111725 0.13975525 -0.66952515 0.4419403q-1.1347656 0.9568939 -0.23993683 2.0213776l0.512764 0.60998535l1.4931259 -1.259079l1.246727 1.4830933l-1.4931183 1.2590942l5.0975113 6.0639496l-2.0186996 1.7022858zm8.922035 -7.5235443q-0.362648 -0.16429138 -0.7761612 -0.5105133q-0.03489685 1.4397125 -1.2055054 2.4268188q-1.1108856 0.9367676 -2.3824615 0.9053345q-1.2596283 -0.041519165 -2.0740204 -1.010315q-1.01548 -1.2080078 -0.6644287 -2.5872803q0.3409958 -1.3912506 2.025238 -2.811493l0.91976166 -0.775589l-0.37200928 -0.4425354q-0.4323349 -0.5142975 -0.96847534 -0.5935974q-0.534256 -0.10134888 -1.1076126 0.3821411q-0.5016937 0.42304993 -0.58918 0.92604065q-0.08559418 0.48095703 0.27635956 0.91152954l-2.006752 1.6921997q-0.55298615 -0.65782166 -0.62129974 -1.5404053q-0.06642151 -0.90460205 0.41275787 -1.8400879q0.46912384 -0.9474335 1.3888855 -1.7230225q1.3856201 -1.1684265 2.7910767 -1.1477051q1.4073486 -0.0012969971 2.4730988 1.26651l2.7448196 3.265213q0.916832 1.0663605 1.666008 1.3748016l0.10054016 0.11961365l-2.0306396 1.7123413zm-2.836708 7.171631E-4q0.44197083 -0.37268066 0.6513901 -0.876297q0.21131897 -0.5256653 0.10897827 -1.0116425l-1.0959167 -1.3036957l-0.75253296 0.6345825q-1.5050659 1.2691498 -0.71585083 2.4022522l0.08859253 0.12968445q0.31168365 0.37077332 0.785614 0.40034485q0.46387482 0.017608643 0.92972565 -0.37522888zm8.006126 -6.8942566q0.5614166 -0.4734192 0.6564636 -1.0645447q0.084991455 -0.6030731 -0.3353958 -1.1274414l1.8873062 -1.5914764q0.64347076 0.7654724 0.7683258 1.7638702q0.12674713 0.9763794 -0.28832245 1.9395447q-0.42512512 0.95121765 -1.2851639 1.6764526q-1.6125717 1.3598022 -3.4208908 1.1269379q-1.7963715 -0.24293518 -3.324623 -2.0609283l-0.1105957 -0.13156128q-1.467926 -1.7462311 -1.4008865 -3.5604858q0.056991577 -1.8262329 1.6695633 -3.1860352q1.4095078 -1.1885834 2.9312363 -1.1023865q1.5336685 0.0761261 2.671692 1.4056244l-1.8873062 1.5914764q-0.5046005 -0.57598877 -1.1526337 -0.6427002q-0.6580887 -0.07865906 -1.2314453 0.40481567q-0.70475006 0.5942993 -0.6307678 1.4107666q0.07398224 0.81648254 1.0391922 1.9646912l0.17092133 0.20332336q0.98532104 1.1721344 1.764061 1.3943176q0.7806244 0.2001648 1.5092697 -0.41426086zm0.052993774 -13.575165l1.5584106 1.8538742l1.290062 -1.0878448l1.246727 1.4831009l-1.2900543 1.0878448l3.1670914 3.7675476q0.3518982 0.41860962 0.65799713 0.46707153q0.31804657 0.038391113 0.7719574 -0.34436035q0.3344574 -0.28204346 0.5570297 -0.55148315l1.2869492 1.5309448q-0.44643402 0.68304443 -1.0675735 1.2068176q-2.1262054 1.7929382 -3.9617538 -0.31777954l-3.418457 -4.066559l-1.098938 0.9266815l-1.246727 -1.4830933l1.098938 -0.9266815l-1.5584106 -1.8538742l2.006752 -1.6922073zm12.644608 1.8459167q-0.31168365 -0.37077332 -0.8629532 -0.27381134q-0.5393219 0.086891174 -1.4804001 0.5943146q-3.1721115 1.7142715 -4.6199265 -0.008033752q-0.8445587 -1.0046768 -0.5714493 -2.379547q0.27310944 -1.3748779 1.6109467 -2.5030136q1.4333954 -1.2087173 2.8665237 -1.2521973q1.4230804 -0.05544281 2.3279648 1.0209961l-2.0067596 1.6922073q-0.36195374 -0.43058014 -0.8798752 -0.46392822q-0.516037 -0.055381775 -1.1013412 0.43817902q-0.5136337 0.43312836 -0.5973358 0.89204407q-0.08370972 0.45892334 0.2179184 0.81773376q0.28152466 0.33489227 0.76301575 0.27633667q0.49343872 -0.06863403 1.3766708 -0.5477295q0.87319183 -0.49105072 1.5476913 -0.73280334q2.081337 -0.7536011 3.297905 0.6936188q0.8646698 1.028595 0.523674 2.419838q-0.35105133 1.3792801 -1.7486191 2.557785q-0.9436493 0.7957306 -1.9657593 1.0853424q-1.0202179 0.26757812 -1.9309464 0.034057617q-0.9107361 -0.23352051 -1.4938812 -0.92723083l1.8992462 -1.6015472q0.48828125 0.50800323 1.0998764 0.48280334q0.61159515 -0.02519989 1.220787 -0.5389023q0.58530426 -0.4935608 0.6910095 -0.95059204q0.10758972 -0.47906494 -0.18398285 -0.8259201z" fill-rule="nonzero"/><g filter="url(#shadowFilter-g33d079c3c0_0_0.2)"><use xlink:href="#g33d079c3c0_0_0.2" transform="matrix(1.0 0.0 0.0 1.0 0.0 2.0)"/></g><defs><filter id="shadowFilter-g33d079c3c0_0_0.2" filterUnits="userSpaceOnUse"><feGaussianBlur in="SourceAlpha" stdDeviation="2.0" result="blur"/><feComponentTransfer in="blur" color-interpolation-filters="sRGB"><feFuncR type="linear" slope="0" intercept="0.0"/><feFuncG type="linear" slope="0" intercept="0.0"/><feFuncB type="linear" slope="0" intercept="0.0"/><feFuncA type="linear" slope="0.5" intercept="0"/></feComponentTransfer></filter></defs><g id="g33d079c3c0_0_0.2"><path fill="#b7b7b7" d="m91.86089 236.5179l105.637794 0l0 64.28346l-105.637794 0z" fill-rule="evenodd"/><path stroke="#434343" stroke-width="1.0" stroke-linejoin="round" stroke-linecap="butt" d="m91.86089 236.5179l105.637794 0l0 64.28346l-105.637794 0z" fill-rule="evenodd"/><path fill="#434343" d="m126.59385 274.51962l0 -11.375l3.7187576 0q1.84375 0 2.78125 0.765625q0.9375 0.765625 0.9375 2.265625q0 0.796875 -0.453125 1.40625q-0.453125 0.609375 -1.234375 0.953125q0.921875 0.25 1.453125 0.984375q0.53125 0.71875 0.53125 1.71875q0 1.53125 -1.0 2.40625q-0.984375 0.875 -2.796875 0.875l-3.9375076 0zm1.5000076 -5.328125l0 4.09375l2.46875 0q1.046875 0 1.65625 -0.53125q0.609375 -0.546875 0.609375 -1.5q0 -2.0625 -2.234375 -2.0625l-2.5 0zm0 -1.203125l2.265625 0q0.984375 0 1.5625 -0.484375q0.59375 -0.5 0.59375 -1.34375q0 -0.9375 -0.546875 -1.359375q-0.546875 -0.421875 -1.65625 -0.421875l-2.21875 0l0 3.609375zm13.4453125 6.53125q-0.125 -0.25 -0.203125 -0.890625q-1.0 1.046875 -2.40625 1.046875q-1.25 0 -2.046875 -0.703125q-0.796875 -0.71875 -0.796875 -1.796875q0 -1.328125 1.0 -2.046875q1.0 -0.734375 2.828125 -0.734375l1.40625 0l0 -0.671875q0 -0.75 -0.453125 -1.203125q-0.453125 -0.453125 -1.34375 -0.453125q-0.765625 0 -1.296875 0.390625q-0.515625 0.390625 -0.515625 0.953125l-1.453125 0q0 -0.640625 0.4375 -1.21875q0.453125 -0.59375 1.21875 -0.9375q0.78125 -0.34375 1.703125 -0.34375q1.453125 0 2.28125 0.734375q0.828125 0.71875 0.859375 2.0l0 3.890625q0 1.171875 0.296875 1.859375l0 0.125l-1.515625 0zm-2.390625 -1.109375q0.671875 0 1.28125 -0.34375q0.609375 -0.359375 0.890625 -0.921875l0 -1.734375l-1.140625 0q-2.65625 0 -2.65625 1.5625q0 0.671875 0.453125 1.0625q0.453125 0.375 1.171875 0.375zm7.234375 -0.078125l4.953125 0l0 1.1875l-6.71875 0l0 -1.0625l4.671875 -6.203125l-4.59375 0l0 -1.1875l6.40625 0l0 1.015625l-4.71875 6.25zm9.960922 1.34375q-1.7187347 0 -2.7968597 -1.125q-1.078125 -1.140625 -1.078125 -3.03125l0 -0.265625q0 -1.25 0.46875 -2.234375q0.484375 -1.0 1.34375 -1.546875q0.875 -0.5625 1.8749847 -0.5625q1.65625 0 2.5625 1.09375q0.921875 1.078125 0.921875 3.09375l0 0.609375l-5.7343597 0q0.03125 1.25 0.734375 2.015625q0.703125 0.765625 1.7812347 0.765625q0.765625 0 1.296875 -0.3125q0.53125 -0.3125 0.921875 -0.828125l0.890625 0.6875q-1.0625 1.640625 -3.1875 1.640625zm-0.1875 -7.578125q-0.87498474 0 -1.4687347 0.640625q-0.59375 0.625 -0.734375 1.78125l4.2343597 0l0 -0.109375q-0.0625 -1.109375 -0.59375 -1.703125q-0.53125 -0.609375 -1.4375 -0.609375zm6.7265625 7.421875l-1.453125 0l0 -12.0l1.453125 0l0 12.0z" fill-rule="nonzero"/></g><g filter="url(#shadowFilter-g33d079c3c0_0_0.3)"><use xlink:href="#g33d079c3c0_0_0.3" transform="matrix(1.0 0.0 0.0 1.0 0.0 2.0)"/></g><defs><filter id="shadowFilter-g33d079c3c0_0_0.3" filterUnits="userSpaceOnUse"><feGaussianBlur in="SourceAlpha" stdDeviation="2.0" result="blur"/><feComponentTransfer in="blur" color-interpolation-filters="sRGB"><feFuncR type="linear" slope="0" intercept="0.0"/><feFuncG type="linear" slope="0" intercept="0.0"/><feFuncB type="linear" slope="0" intercept="0.0"/><feFuncA type="linear" slope="0.5" intercept="0"/></feComponentTransfer></filter></defs><g id="g33d079c3c0_0_0.3"><path fill="#b7b7b7" d="m91.86089 312.75937l105.637794 0l0 64.28348l-105.637794 0z" fill-rule="evenodd"/><path stroke="#434343" stroke-width="1.0" stroke-linejoin="round" stroke-linecap="butt" d="m91.86089 312.75937l105.637794 0l0 64.28348l-105.637794 0z" fill-rule="evenodd"/><path fill="#434343" d="m139.9298 339.3861l1.5 0l0 8.046875q0 1.640625 -0.984375 2.5625q-0.96875 0.921875 -2.609375 0.921875q-1.6875 0 -2.640625 -0.859375q-0.9375 -0.875 -0.9375 -2.4375l1.5 0q0 0.96875 0.53125 1.515625q0.53125 0.546875 1.546875 0.546875q0.9375 0 1.5 -0.578125q0.578125 -0.59375 0.59375 -1.640625l0 -8.078125zm5.40625 11.375l-1.453125 0l0 -8.453125l1.453125 0l0 8.453125zm-1.5625 -10.703125q0 -0.34375 0.203125 -0.578125q0.21875 -0.25 0.640625 -0.25q0.421875 0 0.640625 0.25q0.21875 0.234375 0.21875 0.59375q0 0.34375 -0.21875 0.578125q-0.21875 0.234375 -0.640625 0.234375q-0.421875 0 -0.640625 -0.234375q-0.203125 -0.234375 -0.203125 -0.59375zm11.0234375 6.5625q0 1.9375 -0.890625 3.125q-0.890625 1.171875 -2.390625 1.171875q-1.59375 0 -2.46875 -1.140625l-0.078125 0.984375l-1.328125 0l0 -12.0l1.453125 0l0 4.46875q0.875 -1.078125 2.40625 -1.078125q1.546875 0 2.421875 1.171875q0.875 1.15625 0.875 3.171875l0 0.125zm-1.4375 -0.15625q0 -1.484375 -0.578125 -2.28125q-0.5625 -0.8125 -1.640625 -0.8125q-1.421875 0 -2.046875 1.328125l0 3.65625q0.65625 1.328125 2.0625 1.328125q1.046875 0 1.625 -0.796875q0.578125 -0.8125 0.578125 -2.421875z" fill-rule="nonzero"/></g><path fill="#eeeeee" d="m276.81802 143.39493l0 0c0 -16.87909 13.683197 -30.562286 30.562286 -30.562286l122.245514 0l0 0c8.105621 0 15.879242 3.2199402 21.610779 8.951485c5.7315674 5.7315445 8.951508 13.50518 8.951508 21.610802l0 225.14313c0 16.87909 -13.683228 30.562286 -30.562286 30.562286l-122.245514 0c-16.87909 0 -30.562286 -13.683197 -30.562286 -30.562286z" fill-rule="evenodd"/><path stroke="#434343" stroke-width="3.0" stroke-linejoin="round" stroke-linecap="butt" d="m276.81802 143.39493l0 0c0 -16.87909 13.683197 -30.562286 30.562286 -30.562286l122.245514 0l0 0c8.105621 0 15.879242 3.2199402 21.610779 8.951485c5.7315674 5.7315445 8.951508 13.50518 8.951508 21.610802l0 225.14313c0 16.87909 -13.683228 30.562286 -30.562286 30.562286l-122.245514 0c-16.87909 0 -30.562286 -13.683197 -30.562286 -30.562286z" fill-rule="evenodd"/><g filter="url(#shadowFilter-g33d079c3c0_0_0.4)"><use xlink:href="#g33d079c3c0_0_0.4" transform="matrix(1.0 0.0 0.0 1.0 0.0 2.0)"/></g><defs><filter id="shadowFilter-g33d079c3c0_0_0.4" filterUnits="userSpaceOnUse"><feGaussianBlur in="SourceAlpha" stdDeviation="2.0" result="blur"/><feComponentTransfer in="blur" color-interpolation-filters="sRGB"><feFuncR type="linear" slope="0" intercept="0.0"/><feFuncG type="linear" slope="0" intercept="0.0"/><feFuncB type="linear" slope="0" intercept="0.0"/><feFuncA type="linear" slope="0.5" intercept="0"/></feComponentTransfer></filter></defs><g id="g33d079c3c0_0_0.4"><path fill="#b7b7b7" d="m315.68417 160.27643l105.63779 0l0 64.28346l-105.63779 0z" fill-rule="evenodd"/><path stroke="#434343" stroke-width="1.0" stroke-linejoin="round" stroke-linecap="butt" d="m315.68417 160.27643l105.63779 0l0 64.28346l-105.63779 0z" fill-rule="evenodd"/><path fill="#434343" d="m351.98352 187.5438l5.390625 0l0 1.234375l-6.890625 0l0 -11.375l1.5 0l0 10.140625zm6.5 -3.078125q0 -1.234375 0.484375 -2.21875q0.484375 -1.0 1.359375 -1.53125q0.875 -0.546875 1.984375 -0.546875q1.734375 0 2.796875 1.203125q1.0625 1.1875 1.0625 3.171875l0 0.09375q0 1.234375 -0.46875 2.21875q-0.46875 0.984375 -1.359375 1.53125q-0.875 0.546875 -2.015625 0.546875q-1.71875 0 -2.78125 -1.1875q-1.0625 -1.203125 -1.0625 -3.171875l0 -0.109375zm1.453125 0.171875q0 1.40625 0.640625 2.265625q0.65625 0.84375 1.75 0.84375q1.109375 0 1.75 -0.859375q0.65625 -0.859375 0.65625 -2.421875q0 -1.390625 -0.671875 -2.25q-0.65625 -0.859375 -1.75 -0.859375q-1.0625 0 -1.71875 0.859375q-0.65625 0.84375 -0.65625 2.421875zm11.4375 3.109375q0.78125 0 1.359375 -0.46875q0.578125 -0.46875 0.640625 -1.171875l1.359375 0q-0.03125 0.734375 -0.5 1.390625q-0.453125 0.65625 -1.234375 1.046875q-0.765625 0.390625 -1.625 0.390625q-1.71875 0 -2.75 -1.15625q-1.015625 -1.15625 -1.015625 -3.15625l0 -0.234375q0 -1.234375 0.453125 -2.1875q0.453125 -0.96875 1.296875 -1.5q0.859375 -0.53125 2.015625 -0.53125q1.421875 0 2.359375 0.859375q0.9375 0.84375 1.0 2.203125l-1.359375 0q-0.0625 -0.828125 -0.625 -1.34375q-0.5625 -0.53125 -1.375 -0.53125q-1.109375 0 -1.71875 0.796875q-0.59375 0.78125 -0.59375 2.28125l0 0.28125q0 1.453125 0.59375 2.25q0.609375 0.78125 1.71875 0.78125zm10.203125 1.03125q-0.125 -0.25 -0.203125 -0.890625q-1.0 1.046875 -2.40625 1.046875q-1.25 0 -2.046875 -0.703125q-0.796875 -0.71875 -0.796875 -1.796875q0 -1.328125 1.0 -2.046875q1.0 -0.734375 2.828125 -0.734375l1.40625 0l0 -0.671875q0 -0.75 -0.453125 -1.203125q-0.453125 -0.453125 -1.34375 -0.453125q-0.765625 0 -1.296875 0.390625q-0.515625 0.390625 -0.515625 0.953125l-1.453125 0q0 -0.640625 0.4375 -1.21875q0.453125 -0.59375 1.21875 -0.9375q0.78125 -0.34375 1.703125 -0.34375q1.453125 0 2.28125 0.734375q0.828125 0.71875 0.859375 2.0l0 3.890625q0 1.171875 0.296875 1.859375l0 0.125l-1.515625 0zm-2.390625 -1.109375q0.671875 0 1.28125 -0.34375q0.609375 -0.359375 0.890625 -0.921875l0 -1.734375l-1.140625 0q-2.65625 0 -2.65625 1.5625q0 0.671875 0.453125 1.0625q0.453125 0.375 1.171875 0.375zm7.453125 1.109375l-1.453125 0l0 -12.0l1.453125 0l0 12.0z" fill-rule="nonzero"/><path fill="#434343" d="m344.9132 207.77817l0 -11.375l3.203125 0q1.484375 0 2.625 0.65625q1.140625 0.65625 1.765625 1.875q0.625 1.203125 0.625 2.765625l0 0.734375q0 1.609375 -0.625 2.828125q-0.609375 1.203125 -1.765625 1.859375q-1.15625 0.640625 -2.6875 0.65625l-3.140625 0zm1.5 -10.140625l0 8.90625l1.578125 0q1.734375 0 2.6875 -1.078125q0.96875 -1.078125 0.96875 -3.0625l0 -0.671875q0 -1.9375 -0.90625 -3.0q-0.90625 -1.078125 -2.578125 -1.09375l-1.75 0zm8.3828125 5.828125q0 -1.234375 0.484375 -2.21875q0.484375 -1.0 1.359375 -1.53125q0.875 -0.546875 1.984375 -0.546875q1.734375 0 2.796875 1.203125q1.0625 1.1875 1.0625 3.171875l0 0.09375q0 1.234375 -0.46875 2.21875q-0.46875 0.984375 -1.359375 1.53125q-0.875 0.546875 -2.015625 0.546875q-1.71875 0 -2.78125 -1.1875q-1.0625 -1.203125 -1.0625 -3.171875l0 -0.109375zm1.453125 0.171875q0 1.40625 0.640625 2.265625q0.65625 0.84375 1.75 0.84375q1.109375 0 1.75 -0.859375q0.65625 -0.859375 0.65625 -2.421875q0 -1.390625 -0.671875 -2.25q-0.65625 -0.859375 -1.75 -0.859375q-1.0625 0 -1.71875 0.859375q-0.65625 0.84375 -0.65625 2.421875zm11.4375 3.109375q0.78125 0 1.359375 -0.46875q0.578125 -0.46875 0.640625 -1.171875l1.359375 0q-0.03125 0.734375 -0.5 1.390625q-0.453125 0.65625 -1.234375 1.046875q-0.765625 0.390625 -1.625 0.390625q-1.71875 0 -2.75 -1.15625q-1.015625 -1.15625 -1.015625 -3.15625l0 -0.234375q0 -1.234375 0.453125 -2.1875q0.453125 -0.96875 1.296875 -1.5q0.859375 -0.53125 2.015625 -0.53125q1.421875 0 2.359375 0.859375q0.9375 0.84375 1.0 2.203125l-1.359375 0q-0.0625 -0.828125 -0.625 -1.34375q-0.5625 -0.53125 -1.375 -0.53125q-1.109375 0 -1.71875 0.796875q-0.59375 0.78125 -0.59375 2.28125l0 0.28125q0 1.453125 0.59375 2.25q0.609375 0.78125 1.71875 0.78125zm7.34375 -2.890625l-0.90625 0.953125l0 2.96875l-1.4375 0l0 -12.0l1.4375 0l0 7.25l0.78125 -0.921875l2.625 -2.78125l1.765625 0l-3.296875 3.53125l3.671875 4.921875l-1.6875 0l-2.953125 -3.921875zm9.109375 4.078125q-1.71875 0 -2.796875 -1.125q-1.078125 -1.140625 -1.078125 -3.03125l0 -0.265625q0 -1.25 0.46875 -2.234375q0.484375 -1.0 1.34375 -1.546875q0.875 -0.5625 1.875 -0.5625q1.65625 0 2.5625 1.09375q0.921875 1.078125 0.921875 3.09375l0 0.609375l-5.734375 0q0.03125 1.25 0.734375 2.015625q0.703125 0.765625 1.78125 0.765625q0.765625 0 1.296875 -0.3125q0.53125 -0.3125 0.921875 -0.828125l0.890625 0.6875q-1.0625 1.640625 -3.1875 1.640625zm-0.1875 -7.578125q-0.875 0 -1.46875 0.640625q-0.59375 0.625 -0.734375 1.78125l4.234375 0l0 -0.109375q-0.0625 -1.109375 -0.59375 -1.703125q-0.53125 -0.609375 -1.4375 -0.609375zm9.2421875 0.265625q-0.328125 -0.0625 -0.71875 -0.0625q-1.421875 0 -1.921875 1.21875l0 6.0l-1.453125 0l0 -8.453125l1.40625 0l0.03125 0.96875q0.703125 -1.125 2.015625 -1.125q0.421875 0 0.640625 0.109375l0 1.34375z" fill-rule="nonzero"/></g><path fill="#000000" fill-opacity="0.0" d="m249.38544 158.19206l79.37009 -66.92913l25.417328 30.236221l-79.37009 66.92913z" fill-rule="evenodd"/><path fill="#434343" d="m292.7249 156.85944l-8.536072 -10.154449l3.5476685 -2.9915771q1.851471 -1.5612488 3.3883057 -1.6513214q1.5488281 -0.10014343 2.7050476 1.2752991q0.62338257 0.7415619 0.72372437 1.6379852q0.09033203 0.88446045 -0.36935425 1.7217407q0.9473572 -0.45140076 1.9039917 -0.23612976q0.9465637 0.20329285 1.6604004 1.0524902q1.2366943 1.4711304 0.92645264 3.0203857q-0.2982788 1.5391693 -2.0083008 3.0016022l-3.941864 3.3239746zm-1.6296997 -6.188095l2.3024292 2.7389526l1.791748 -1.5108948q0.7286377 -0.6144409 0.85513306 -1.3138275q0.12649536 -0.69940186 -0.3963318 -1.3213501q-1.1763306 -1.3993683 -2.6417847 -0.20449829l-1.9111938 1.611618zm-1.2366638 -1.4711304l1.5408936 -1.2993774q1.5465698 -1.3654633 0.5109863 -2.5973969q-0.5730896 -0.68174744 -1.2305908 -0.6382904q-0.6555786 0.02142334 -1.515625 0.7466583l-1.4573059 1.2288666l2.1516418 2.5595398zm15.708679 -4.47818q0.011566162 1.5435791 -1.3023682 2.6515656q-1.2183838 1.0274048 -2.4346313 0.8675537q-1.2262573 -0.17181396 -2.3642883 -1.5013275l-4.1624756 -4.9516296l2.0067444 -1.6921997l4.1021423 4.8798676q0.98532104 1.1721344 2.0603638 0.26559448q1.0272827 -0.8662567 0.8163147 -1.8942413l-4.4942627 -5.3463287l2.0187073 -1.7022858l6.3442383 7.547058l-1.899231 1.6015472l-0.69125366 -0.72517395zm6.2352295 -3.9498138l-2.0306396 1.7123566l-6.3442383 -7.547058l2.0306396 -1.7123566l6.3442383 7.547058zm-10.121246 -7.6936035q-0.38204956 -0.4544983 -0.32473755 -0.9933624q0.04727173 -0.550827 0.57284546 -0.9940338q0.51364136 -0.43312073 1.0636292 -0.3859253q0.55184937 0.025161743 0.93392944 0.47966003q0.38204956 0.4544983 0.32284546 1.0153961q-0.05731201 0.5388794 -0.57095337 0.9720001q-0.51364136 0.43312073 -1.0655212 0.40795898q-0.5499573 -0.047195435 -0.93203735 -0.5016937zm13.90271 4.504883l-2.0306396 1.7123413l-9.008636 -10.716583l2.0306396 -1.7123413l9.008636 10.716583zm-1.8846436 -4.9512024q-1.4880066 -1.7701416 -1.5743713 -3.4754944q-0.074401855 -1.7154312 1.2992554 -2.873787q1.098938 -0.9266815 2.4993286 -0.71772766l-3.2374573 -3.8512726l2.0186768 -1.7022781l9.008636 10.716583l-1.8156433 1.5310364l-0.76919556 -0.72076416q0.041748047 1.5794525 -1.1407776 2.576645q-1.3378601 1.128128 -3.0348816 0.7605591q-1.6850891 -0.37765503 -3.2535706 -2.2434998zm2.1393738 -1.5587463q0.8948059 1.0644836 1.7376709 1.3143768q0.8428345 0.24989319 1.5476074 -0.34440613q0.93170166 -0.7856598 0.6503601 -1.8973694l-2.5035095 -2.9781647q-1.0357666 -0.455101 -1.9555359 0.32048798q-1.4573059 1.228859 0.523407 3.5850754z" fill-rule="nonzero"/><g filter="url(#shadowFilter-g33d079c3c0_0_0.5)"><use xlink:href="#g33d079c3c0_0_0.5" transform="matrix(1.0 0.0 0.0 1.0 0.0 2.0)"/></g><defs><filter id="shadowFilter-g33d079c3c0_0_0.5" filterUnits="userSpaceOnUse"><feGaussianBlur in="SourceAlpha" stdDeviation="2.0" result="blur"/><feComponentTransfer in="blur" color-interpolation-filters="sRGB"><feFuncR type="linear" slope="0" intercept="0.0"/><feFuncG type="linear" slope="0" intercept="0.0"/><feFuncB type="linear" slope="0" intercept="0.0"/><feFuncA type="linear" slope="0.5" intercept="0"/></feComponentTransfer></filter></defs><g id="g33d079c3c0_0_0.5"><path fill="#b7b7b7" d="m315.68417 236.5179l105.63779 0l0 64.28346l-105.63779 0z" fill-rule="evenodd"/><path stroke="#434343" stroke-width="1.0" stroke-linejoin="round" stroke-linecap="butt" d="m315.68417 236.5179l105.63779 0l0 64.28346l-105.63779 0z" fill-rule="evenodd"/><path fill="#434343" d="m352.9796 263.51962q-0.578125 0.828125 -1.609375 1.25q-1.03125 0.40625 -2.40625 0.40625q-1.390625 0 -2.46875 -0.65625q-1.078125 -0.65625 -1.671875 -1.859375q-0.59375 -1.203125 -0.609375 -2.78125l0 -1.0q0 -2.5625 1.203125 -3.96875q1.203125 -1.421875 3.375 -1.421875q1.78125 0 2.859375 0.90625q1.09375 0.90625 1.328125 2.578125l-1.5 0q-0.421875 -2.25 -2.6875 -2.25q-1.5 0 -2.28125 1.0625q-0.78125 1.046875 -0.78125 3.0625l0 0.921875q0 1.921875 0.875 3.046875q0.875 1.125 2.359375 1.125q0.84375 0 1.46875 -0.1875q0.640625 -0.1875 1.0625 -0.625l0 -2.5625l-2.640625 0l0 -1.21875l4.125 0l0 4.171875zm1.8984375 -2.8125q0 -1.234375 0.484375 -2.21875q0.484375 -1.0 1.359375 -1.53125q0.875 -0.546875 1.984375 -0.546875q1.734375 0 2.796875 1.203125q1.0625 1.1875 1.0625 3.171875l0 0.09375q0 1.234375 -0.46875 2.21875q-0.46875 0.984375 -1.359375 1.53125q-0.875 0.546875 -2.015625 0.546875q-1.71875 0 -2.78125 -1.1875q-1.0625 -1.203125 -1.0625 -3.171875l0 -0.109375zm1.453125 0.171875q0 1.40625 0.640625 2.265625q0.65625 0.84375 1.75 0.84375q1.109375 0 1.75 -0.859375q0.65625 -0.859375 0.65625 -2.421875q0 -1.390625 -0.671875 -2.25q-0.65625 -0.859375 -1.75 -0.859375q-1.0625 0 -1.71875 0.859375q-0.65625 0.84375 -0.65625 2.421875zm7.671875 -0.171875q0 -1.234375 0.484375 -2.21875q0.484375 -1.0 1.359375 -1.53125q0.875 -0.546875 1.984375 -0.546875q1.734375 0 2.796875 1.203125q1.0625 1.1875 1.0625 3.171875l0 0.09375q0 1.234375 -0.46875 2.21875q-0.46875 0.984375 -1.359375 1.53125q-0.875 0.546875 -2.015625 0.546875q-1.71875 0 -2.78125 -1.1875q-1.0625 -1.203125 -1.0625 -3.171875l0 -0.109375zm1.453125 0.171875q0 1.40625 0.640625 2.265625q0.65625 0.84375 1.75 0.84375q1.109375 0 1.75 -0.859375q0.65625 -0.859375 0.65625 -2.421875q0 -1.390625 -0.671875 -2.25q-0.65625 -0.859375 -1.75 -0.859375q-1.0625 0 -1.71875 0.859375q-0.65625 0.84375 -0.65625 2.421875zm7.703125 -0.15625q0 -1.984375 0.90625 -3.140625q0.921875 -1.171875 2.4375 -1.171875q1.546875 0 2.40625 1.09375l0.078125 -0.9375l1.3125 0l0 8.25q0 1.640625 -0.96875 2.578125q-0.96875 0.953125 -2.609375 0.953125q-0.921875 0 -1.796875 -0.390625q-0.875 -0.390625 -1.328125 -1.0625l0.75 -0.875q0.921875 1.15625 2.265625 1.15625q1.0625 0 1.640625 -0.59375q0.59375 -0.59375 0.59375 -1.6875l0 -0.71875q-0.859375 1.0 -2.359375 1.0q-1.484375 0 -2.40625 -1.1875q-0.921875 -1.203125 -0.921875 -3.265625zm1.453125 0.15625q0 1.4375 0.578125 2.25q0.59375 0.8125 1.65625 0.8125q1.359375 0 2.0 -1.234375l0 -3.859375q-0.65625 -1.21875 -1.984375 -1.21875q-1.0625 0 -1.65625 0.828125q-0.59375 0.8125 -0.59375 2.421875zm9.4453125 4.140625l-1.453125 0l0 -12.0l1.453125 0l0 12.0zm5.8203125 0.15625q-1.71875 0 -2.796875 -1.125q-1.078125 -1.140625 -1.078125 -3.03125l0 -0.265625q0 -1.25 0.46875 -2.234375q0.484375 -1.0 1.34375 -1.546875q0.875 -0.5625 1.875 -0.5625q1.65625 0 2.5625 1.09375q0.921875 1.078125 0.921875 3.09375l0 0.609375l-5.734375 0q0.03125 1.25 0.734375 2.015625q0.703125 0.765625 1.78125 0.765625q0.765625 0 1.296875 -0.3125q0.53125 -0.3125 0.921875 -0.828125l0.890625 0.6875q-1.0625 1.640625 -3.1875 1.640625zm-0.1875 -7.578125q-0.875 0 -1.46875 0.640625q-0.59375 0.625 -0.734375 1.78125l4.234375 0l0 -0.109375q-0.0625 -1.109375 -0.59375 -1.703125q-0.53125 -0.609375 -1.4375 -0.609375z" fill-rule="nonzero"/><path fill="#434343" d="m337.7921 280.41025q-0.203125 1.796875 -1.328125 2.78125q-1.125 0.984375 -2.984375 0.984375q-2.015625 0 -3.234375 -1.4375q-1.203125 -1.453125 -1.203125 -3.875l0 -1.09375q0 -1.59375 0.5625 -2.796875q0.5625 -1.203125 1.59375 -1.84375q1.046875 -0.640625 2.421875 -0.640625q1.8125 0 2.90625 1.015625q1.09375 1.0 1.265625 2.796875l-1.5 0q-0.203125 -1.359375 -0.859375 -1.96875q-0.640625 -0.609375 -1.8125 -0.609375q-1.4375 0 -2.265625 1.0625q-0.8125 1.0625 -0.8125 3.015625l0 1.109375q0 1.84375 0.765625 2.9375q0.78125 1.09375 2.171875 1.09375q1.25 0 1.921875 -0.5625q0.671875 -0.5625 0.890625 -1.96875l1.5 0zm3.3984375 3.609375l-1.453125 0l0 -12.0l1.453125 0l0 12.0zm1.9296875 -4.3125q0 -1.234375 0.484375 -2.21875q0.484375 -1.0 1.359375 -1.53125q0.875 -0.546875 1.984375 -0.546875q1.734375 0 2.796875 1.203125q1.0625 1.1875 1.0625 3.171875l0 0.09375q0 1.234375 -0.46875 2.21875q-0.46875 0.984375 -1.359375 1.53125q-0.875 0.546875 -2.015625 0.546875q-1.71875 0 -2.78125 -1.1875q-1.0625 -1.203125 -1.0625 -3.171875l0 -0.109375zm1.453125 0.171875q0 1.40625 0.640625 2.265625q0.65625 0.84375 1.75 0.84375q1.109375 0 1.75 -0.859375q0.65625 -0.859375 0.65625 -2.421875q0 -1.390625 -0.671875 -2.25q-0.65625 -0.859375 -1.75 -0.859375q-1.0625 0 -1.71875 0.859375q-0.65625 0.84375 -0.65625 2.421875zm13.265625 3.296875q-0.84375 1.0 -2.46875 1.0q-1.359375 0 -2.0625 -0.78125q-0.703125 -0.796875 -0.71875 -2.328125l0 -5.5l1.453125 0l0 5.453125q0 1.921875 1.5625 1.921875q1.65625 0 2.203125 -1.234375l0 -6.140625l1.4375 0l0 8.453125l-1.375 0l-0.03125 -0.84375zm3.2578125 -3.453125q0 -1.953125 0.921875 -3.125q0.921875 -1.1875 2.40625 -1.1875q1.484375 0 2.359375 1.015625l0 -4.40625l1.4375 0l0 12.0l-1.328125 0l-0.0625 -0.90625q-0.875 1.0625 -2.421875 1.0625q-1.46875 0 -2.390625 -1.203125q-0.921875 -1.203125 -0.921875 -3.140625l0 -0.109375zm1.4375 0.15625q0 1.4375 0.59375 2.25q0.59375 0.8125 1.640625 0.8125q1.375 0 2.015625 -1.234375l0 -3.875q-0.65625 -1.203125 -2.0 -1.203125q-1.0625 0 -1.65625 0.828125q-0.59375 0.8125 -0.59375 2.421875zm12.125 4.140625l0 -11.375l3.71875 0q1.84375 0 2.78125 0.765625q0.9375 0.765625 0.9375 2.265625q0 0.796875 -0.453125 1.40625q-0.453125 0.609375 -1.234375 0.953125q0.921875 0.25 1.453125 0.984375q0.53125 0.71875 0.53125 1.71875q0 1.53125 -1.0 2.40625q-0.984375 0.875 -2.796875 0.875l-3.9375 0zm1.5 -5.328125l0 4.09375l2.46875 0q1.046875 0 1.65625 -0.53125q0.609375 -0.546875 0.609375 -1.5q0 -2.0625 -2.234375 -2.0625l-2.5 0zm0 -1.203125l2.265625 0q0.984375 0 1.5625 -0.484375q0.59375 -0.5 0.59375 -1.34375q0 -0.9375 -0.546875 -1.359375q-0.546875 -0.421875 -1.65625 -0.421875l-2.21875 0l0 3.609375zm13.4453125 5.6875q-0.84375 1.0 -2.46875 1.0q-1.359375 0 -2.0625 -0.78125q-0.703125 -0.796875 -0.71875 -2.328125l0 -5.5l1.453125 0l0 5.453125q0 1.921875 1.5625 1.921875q1.65625 0 2.203125 -1.234375l0 -6.140625l1.4375 0l0 8.453125l-1.375 0l-0.03125 -0.84375zm5.1796875 0.84375l-1.453125 0l0 -8.453125l1.453125 0l0 8.453125zm-1.5625 -10.703125q0 -0.34375 0.203125 -0.578125q0.21875 -0.25 0.640625 -0.25q0.421875 0 0.640625 0.25q0.21875 0.234375 0.21875 0.59375q0 0.34375 -0.21875 0.578125q-0.21875 0.234375 -0.640625 0.234375q-0.421875 0 -0.640625 -0.234375q-0.203125 -0.234375 -0.203125 -0.59375zm5.4453125 10.703125l-1.453125 0l0 -12.0l1.453125 0l0 12.0zm1.9609375 -4.296875q0 -1.953125 0.921875 -3.125q0.921875 -1.1875 2.40625 -1.1875q1.484375 0 2.359375 1.015625l0 -4.40625l1.4375 0l0 12.0l-1.328125 0l-0.0625 -0.90625q-0.875 1.0625 -2.421875 1.0625q-1.46875 0 -2.390625 -1.203125q-0.921875 -1.203125 -0.921875 -3.140625l0 -0.109375zm1.4375 0.15625q0 1.4375 0.59375 2.25q0.59375 0.8125 1.640625 0.8125q1.375 0 2.015625 -1.234375l0 -3.875q-0.65625 -1.203125 -2.0 -1.203125q-1.0625 0 -1.65625 0.828125q-0.59375 0.8125 -0.59375 2.421875z" fill-rule="nonzero"/></g><g filter="url(#shadowFilter-g33d079c3c0_0_0.6)"><use xlink:href="#g33d079c3c0_0_0.6" transform="matrix(1.0 0.0 0.0 1.0 0.0 2.0)"/></g><defs><filter id="shadowFilter-g33d079c3c0_0_0.6" filterUnits="userSpaceOnUse"><feGaussianBlur in="SourceAlpha" stdDeviation="2.0" result="blur"/><feComponentTransfer in="blur" color-interpolation-filters="sRGB"><feFuncR type="linear" slope="0" intercept="0.0"/><feFuncG type="linear" slope="0" intercept="0.0"/><feFuncB type="linear" slope="0" intercept="0.0"/><feFuncA type="linear" slope="0.5" intercept="0"/></feComponentTransfer></filter></defs><g id="g33d079c3c0_0_0.6"><path fill="#b7b7b7" d="m315.68417 312.75937l105.63779 0l0 64.28348l-105.63779 0z" fill-rule="evenodd"/><path stroke="#434343" stroke-width="1.0" stroke-linejoin="round" stroke-linecap="butt" d="m315.68417 312.75937l105.63779 0l0 64.28348l-105.63779 0z" fill-rule="evenodd"/><path fill="#434343" d="m337.42493 335.96423l-1.390625 1.453125l0 3.84375l-1.5 0l0 -11.375l1.5 0l0 5.625l5.046875 -5.625l1.8125 0l-4.46875 5.015625l4.828125 6.359375l-1.796875 0l-4.03125 -5.296875zm12.125 5.296875q-0.125 -0.25 -0.203125 -0.890625q-1.0 1.046875 -2.40625 1.046875q-1.25 0 -2.046875 -0.703125q-0.796875 -0.71875 -0.796875 -1.796875q0 -1.328125 1.0 -2.046875q1.0 -0.734375 2.828125 -0.734375l1.40625 0l0 -0.671875q0 -0.75 -0.453125 -1.203125q-0.453125 -0.453125 -1.34375 -0.453125q-0.765625 0 -1.296875 0.390625q-0.515625 0.390625 -0.515625 0.953125l-1.453125 0q0 -0.640625 0.4375 -1.21875q0.453125 -0.59375 1.21875 -0.9375q0.78125 -0.34375 1.703125 -0.34375q1.453125 0 2.28125 0.734375q0.828125 0.71875 0.859375 2.0l0 3.890625q0 1.171875 0.296875 1.859375l0 0.125l-1.515625 0zm-2.390625 -1.109375q0.671875 0 1.28125 -0.34375q0.609375 -0.359375 0.890625 -0.921875l0 -1.734375l-1.140625 0q-2.65625 0 -2.65625 1.5625q0 0.671875 0.453125 1.0625q0.453125 0.375 1.171875 0.375zm7.25 -7.34375l0.046875 1.0625q0.96875 -1.21875 2.53125 -1.21875q2.671875 0 2.703125 3.015625l0 5.59375l-1.453125 0l0 -5.59375q0 -0.921875 -0.421875 -1.359375q-0.40625 -0.4375 -1.265625 -0.4375q-0.703125 0 -1.234375 0.375q-0.53125 0.375 -0.828125 0.984375l0 6.03125l-1.453125 0l0 -8.453125l1.375 0zm9.03125 8.453125l-1.453125 0l0 -8.453125l1.453125 0l0 8.453125zm-1.5625 -10.703125q0 -0.34375 0.203125 -0.578125q0.21875 -0.25 0.640625 -0.25q0.421875 0 0.640625 0.25q0.21875 0.234375 0.21875 0.59375q0 0.34375 -0.21875 0.578125q-0.21875 0.234375 -0.640625 0.234375q-0.421875 0 -0.640625 -0.234375q-0.203125 -0.234375 -0.203125 -0.59375zm6.2265625 6.78125l-0.90625 0.953125l0 2.96875l-1.4375 0l0 -12.0l1.4375 0l0 7.25l0.78125 -0.921875l2.625 -2.78125l1.765625 0l-3.296875 3.53125l3.671875 4.921875l-1.6875 0l-2.953125 -3.921875zm5.375 -0.390625q0 -1.234375 0.484375 -2.21875q0.484375 -1.0 1.359375 -1.53125q0.875 -0.546875 1.984375 -0.546875q1.734375 0 2.796875 1.203125q1.0625 1.1875 1.0625 3.171875l0 0.09375q0 1.234375 -0.46875 2.21875q-0.46875 0.984375 -1.359375 1.53125q-0.875 0.546875 -2.015625 0.546875q-1.71875 0 -2.78125 -1.1875q-1.0625 -1.203125 -1.0625 -3.171875l0 -0.109375zm1.453125 0.171875q0 1.40625 0.640625 2.265625q0.65625 0.84375 1.75 0.84375q1.109375 0 1.75 -0.859375q0.65625 -0.859375 0.65625 -2.421875q0 -1.390625 -0.671875 -2.25q-0.65625 -0.859375 -1.75 -0.859375q-1.0625 0 -1.71875 0.859375q-0.65625 0.84375 -0.65625 2.421875zm11.6328125 -0.171875q0 -1.234375 0.484375 -2.21875q0.484375 -1.0 1.359375 -1.53125q0.875 -0.546875 1.984375 -0.546875q1.734375 0 2.796875 1.203125q1.0625 1.1875 1.0625 3.171875l0 0.09375q0 1.234375 -0.46875 2.21875q-0.46875 0.984375 -1.359375 1.53125q-0.875 0.546875 -2.015625 0.546875q-1.71875 0 -2.78125 -1.1875q-1.0625 -1.203125 -1.0625 -3.171875l0 -0.109375zm1.453125 0.171875q0 1.40625 0.640625 2.265625q0.65625 0.84375 1.75 0.84375q1.109375 0 1.75 -0.859375q0.65625 -0.859375 0.65625 -2.421875q0 -1.390625 -0.671875 -2.25q-0.65625 -0.859375 -1.75 -0.859375q-1.0625 0 -1.71875 0.859375q-0.65625 0.84375 -0.65625 2.421875zm9.421875 -4.3125l0.046875 1.0625q0.96875 -1.21875 2.53125 -1.21875q2.671875 0 2.703125 3.015625l0 5.59375l-1.453125 0l0 -5.59375q0 -0.921875 -0.421875 -1.359375q-0.40625 -0.4375 -1.265625 -0.4375q-0.703125 0 -1.234375 0.375q-0.53125 0.375 -0.828125 0.984375l0 6.03125l-1.453125 0l0 -8.453125l1.375 0z" fill-rule="nonzero"/><path fill="#434343" d="m332.32336 354.96423l-1.390625 1.453125l0 3.84375l-1.5 0l0 -11.375l1.5 0l0 5.625l5.046875 -5.625l1.8125 0l-4.46875 5.015625l4.828125 6.359375l-1.796875 0l-4.03125 -5.296875zm11.9453125 4.453125q-0.84375 1.0 -2.46875 1.0q-1.359375 0 -2.0625 -0.78125q-0.703125 -0.796875 -0.71875 -2.328125l0 -5.5l1.453125 0l0 5.453125q0 1.921875 1.5625 1.921875q1.65625 0 2.203125 -1.234375l0 -6.140625l1.4375 0l0 8.453125l-1.375 0l-0.03125 -0.84375zm10.7578125 -3.296875q0 1.9375 -0.890625 3.125q-0.890625 1.171875 -2.390625 1.171875q-1.59375 0 -2.46875 -1.140625l-0.078125 0.984375l-1.328125 0l0 -12.0l1.453125 0l0 4.46875q0.875 -1.078125 2.40625 -1.078125q1.546875 0 2.421875 1.171875q0.875 1.15625 0.875 3.171875l0 0.125zm-1.4375 -0.15625q0 -1.484375 -0.578125 -2.28125q-0.5625 -0.8125 -1.640625 -0.8125q-1.421875 0 -2.046875 1.328125l0 3.65625q0.65625 1.328125 2.0625 1.328125q1.046875 0 1.625 -0.796875q0.578125 -0.8125 0.578125 -2.421875zm6.7734375 4.453125q-1.71875 0 -2.796875 -1.125q-1.078125 -1.140625 -1.078125 -3.03125l0 -0.265625q0 -1.25 0.46875 -2.234375q0.484375 -1.0 1.34375 -1.546875q0.875 -0.5625 1.875 -0.5625q1.65625 0 2.5625 1.09375q0.921875 1.078125 0.921875 3.09375l0 0.609375l-5.734375 0q0.03125 1.25 0.734375 2.015625q0.703125 0.765625 1.78125 0.765625q0.765625 0 1.296875 -0.3125q0.53125 -0.3125 0.921875 -0.828125l0.890625 0.6875q-1.0625 1.640625 -3.1875 1.640625zm-0.1875 -7.578125q-0.875 0 -1.46875 0.640625q-0.59375 0.625 -0.734375 1.78125l4.234375 0l0 -0.109375q-0.0625 -1.109375 -0.59375 -1.703125q-0.53125 -0.609375 -1.4375 -0.609375zm9.2421875 0.265625q-0.328125 -0.0625 -0.71875 -0.0625q-1.421875 0 -1.921875 1.21875l0 6.0l-1.453125 0l0 -8.453125l1.40625 0l0.03125 0.96875q0.703125 -1.125 2.015625 -1.125q0.421875 0 0.640625 0.109375l0 1.34375zm2.6953125 -1.296875l0.046875 1.0625q0.96875 -1.21875 2.53125 -1.21875q2.671875 0 2.703125 3.015625l0 5.59375l-1.453125 0l0 -5.59375q0 -0.921875 -0.421875 -1.359375q-0.40625 -0.4375 -1.265625 -0.4375q-0.703125 0 -1.234375 0.375q-0.53125 0.375 -0.828125 0.984375l0 6.03125l-1.453125 0l0 -8.453125l1.375 0zm10.96875 8.609375q-1.71875 0 -2.796875 -1.125q-1.078125 -1.140625 -1.078125 -3.03125l0 -0.265625q0 -1.25 0.46875 -2.234375q0.484375 -1.0 1.34375 -1.546875q0.875 -0.5625 1.875 -0.5625q1.65625 0 2.5625 1.09375q0.921875 1.078125 0.921875 3.09375l0 0.609375l-5.734375 0q0.03125 1.25 0.734375 2.015625q0.703125 0.765625 1.78125 0.765625q0.765625 0 1.296875 -0.3125q0.53125 -0.3125 0.921875 -0.828125l0.890625 0.6875q-1.0625 1.640625 -3.1875 1.640625zm-0.1875 -7.578125q-0.875 0 -1.46875 0.640625q-0.59375 0.625 -0.734375 1.78125l4.234375 0l0 -0.109375q-0.0625 -1.109375 -0.59375 -1.703125q-0.53125 -0.609375 -1.4375 -0.609375zm7.1171875 -3.078125l0 2.046875l1.578125 0l0 1.109375l-1.578125 0l0 5.25q0 0.5 0.203125 0.765625q0.21875 0.25 0.71875 0.25q0.25 0 0.6875 -0.09375l0 1.171875q-0.5625 0.15625 -1.109375 0.15625q-0.96875 0 -1.46875 -0.578125q-0.484375 -0.59375 -0.484375 -1.671875l0 -5.25l-1.53125 0l0 -1.109375l1.53125 0l0 -2.046875l1.453125 0zm6.7734375 10.65625q-1.71875 0 -2.796875 -1.125q-1.078125 -1.140625 -1.078125 -3.03125l0 -0.265625q0 -1.25 0.46875 -2.234375q0.484375 -1.0 1.34375 -1.546875q0.875 -0.5625 1.875 -0.5625q1.65625 0 2.5625 1.09375q0.921875 1.078125 0.921875 3.09375l0 0.609375l-5.734375 0q0.03125 1.25 0.734375 2.015625q0.703125 0.765625 1.78125 0.765625q0.765625 0 1.296875 -0.3125q0.53125 -0.3125 0.921875 -0.828125l0.890625 0.6875q-1.0625 1.640625 -3.1875 1.640625zm-0.1875 -7.578125q-0.875 0 -1.46875 0.640625q-0.59375 0.625 -0.734375 1.78125l4.234375 0l0 -0.109375q-0.0625 -1.109375 -0.59375 -1.703125q-0.53125 -0.609375 -1.4375 -0.609375zm10.0703125 5.171875q0 -0.578125 -0.4375 -0.90625q-0.4375 -0.328125 -1.546875 -0.5625q-1.09375 -0.234375 -1.734375 -0.5625q-0.640625 -0.328125 -0.953125 -0.78125q-0.3125 -0.453125 -0.3125 -1.078125q0 -1.03125 0.875 -1.75q0.890625 -0.71875 2.25 -0.71875q1.4375 0 2.328125 0.75q0.90625 0.734375 0.90625 1.890625l-1.453125 0q0 -0.59375 -0.515625 -1.015625q-0.5 -0.4375 -1.265625 -0.4375q-0.78125 0 -1.234375 0.34375q-0.4375 0.34375 -0.4375 0.890625q0 0.53125 0.40625 0.796875q0.421875 0.265625 1.5 0.515625q1.078125 0.234375 1.75 0.578125q0.671875 0.328125 1.0 0.796875q0.328125 0.46875 0.328125 1.15625q0 1.125 -0.90625 1.8125q-0.90625 0.6875 -2.359375 0.6875q-1.015625 0 -1.796875 -0.359375q-0.78125 -0.359375 -1.21875 -1.0q-0.4375 -0.65625 -0.4375 -1.40625l1.4375 0q0.046875 0.734375 0.578125 1.15625q0.546875 0.421875 1.4375 0.421875q0.828125 0 1.3125 -0.328125q0.5 -0.328125 0.5 -0.890625z" fill-rule="nonzero"/></g><path fill="#eeeeee" d="m500.6413 143.39493l0 0c0 -16.87909 13.683228 -30.562286 30.562317 -30.562286l122.24548 0l0 0c8.105591 0 15.879272 3.2199402 21.610779 8.951485c5.7315674 5.7315445 8.951477 13.50518 8.951477 21.610802l0 225.14313c0 16.87909 -13.6831665 30.562286 -30.562256 30.562286l-122.24548 0c-16.87909 0 -30.562317 -13.683197 -30.562317 -30.562286z" fill-rule="evenodd"/><path stroke="#434343" stroke-width="3.0" stroke-linejoin="round" stroke-linecap="butt" d="m500.6413 143.39493l0 0c0 -16.87909 13.683228 -30.562286 30.562317 -30.562286l122.24548 0l0 0c8.105591 0 15.879272 3.2199402 21.610779 8.951485c5.7315674 5.7315445 8.951477 13.50518 8.951477 21.610802l0 225.14313c0 16.87909 -13.6831665 30.562286 -30.562256 30.562286l-122.24548 0c-16.87909 0 -30.562317 -13.683197 -30.562317 -30.562286z" fill-rule="evenodd"/><g filter="url(#shadowFilter-g33d079c3c0_0_0.7)"><use xlink:href="#g33d079c3c0_0_0.7" transform="matrix(1.0 0.0 0.0 1.0 0.0 2.0)"/></g><defs><filter id="shadowFilter-g33d079c3c0_0_0.7" filterUnits="userSpaceOnUse"><feGaussianBlur in="SourceAlpha" stdDeviation="2.0" result="blur"/><feComponentTransfer in="blur" color-interpolation-filters="sRGB"><feFuncR type="linear" slope="0" intercept="0.0"/><feFuncG type="linear" slope="0" intercept="0.0"/><feFuncB type="linear" slope="0" intercept="0.0"/><feFuncA type="linear" slope="0.5" intercept="0"/></feComponentTransfer></filter></defs><g id="g33d079c3c0_0_0.7"><path fill="#b7b7b7" d="m539.50745 160.27643l105.63776 0l0 64.28346l-105.63776 0z" fill-rule="evenodd"/><path stroke="#434343" stroke-width="1.0" stroke-linejoin="round" stroke-linecap="butt" d="m539.50745 160.27643l105.63776 0l0 64.28346l-105.63776 0z" fill-rule="evenodd"/><path fill="#434343" d="m567.56464 185.1688q-0.203125 1.796875 -1.328125 2.78125q-1.125 0.984375 -2.984375 0.984375q-2.015625 0 -3.234375 -1.4375q-1.203125 -1.453125 -1.203125 -3.875l0 -1.09375q0 -1.59375 0.5625 -2.796875q0.5625 -1.203125 1.59375 -1.84375q1.046875 -0.640625 2.421875 -0.640625q1.8125 0 2.90625 1.015625q1.09375 1.0 1.265625 2.796875l-1.5 0q-0.203125 -1.359375 -0.859375 -1.96875q-0.640625 -0.609375 -1.8125 -0.609375q-1.4375 0 -2.265625 1.0625q-0.8125 1.0625 -0.8125 3.015625l0 1.109375q0 1.84375 0.765625 2.9375q0.78125 1.09375 2.171875 1.09375q1.25 0 1.921875 -0.5625q0.671875 -0.5625 0.890625 -1.96875l1.5 0zm1.4453125 -0.703125q0 -1.234375 0.484375 -2.21875q0.484375 -1.0 1.359375 -1.53125q0.875 -0.546875 1.984375 -0.546875q1.734375 0 2.796875 1.203125q1.0625 1.1875 1.0625 3.171875l0 0.09375q0 1.234375 -0.46875 2.21875q-0.46875 0.984375 -1.359375 1.53125q-0.875 0.546875 -2.015625 0.546875q-1.71875 0 -2.78125 -1.1875q-1.0625 -1.203125 -1.0625 -3.171875l0 -0.109375zm1.453125 0.171875q0 1.40625 0.640625 2.265625q0.65625 0.84375 1.75 0.84375q1.109375 0 1.75 -0.859375q0.65625 -0.859375 0.65625 -2.421875q0 -1.390625 -0.671875 -2.25q-0.65625 -0.859375 -1.75 -0.859375q-1.0625 0 -1.71875 0.859375q-0.65625 0.84375 -0.65625 2.421875zm9.421875 -4.3125l0.046875 1.0625q0.96875 -1.21875 2.53125 -1.21875q2.671875 0 2.703125 3.015625l0 5.59375l-1.453125 0l0 -5.59375q0 -0.921875 -0.421875 -1.359375q-0.40625 -0.4375 -1.265625 -0.4375q-0.703125 0 -1.234375 0.375q-0.53125 0.375 -0.828125 0.984375l0 6.03125l-1.453125 0l0 -8.453125l1.375 0zm9.421875 -2.046875l0 2.046875l1.578125 0l0 1.109375l-1.578125 0l0 5.25q0 0.5 0.203125 0.765625q0.21875 0.25 0.71875 0.25q0.25 0 0.6875 -0.09375l0 1.171875q-0.5625 0.15625 -1.109375 0.15625q-0.96875 0 -1.46875 -0.578125q-0.484375 -0.59375 -0.484375 -1.671875l0 -5.25l-1.53125 0l0 -1.109375l1.53125 0l0 -2.046875l1.453125 0zm8.4765625 10.5q-0.125 -0.25 -0.203125 -0.890625q-1.0 1.046875 -2.40625 1.046875q-1.25 0 -2.046875 -0.703125q-0.796875 -0.71875 -0.796875 -1.796875q0 -1.328125 1.0 -2.046875q1.0 -0.734375 2.828125 -0.734375l1.40625 0l0 -0.671875q0 -0.75 -0.453125 -1.203125q-0.453125 -0.453125 -1.34375 -0.453125q-0.765625 0 -1.296875 0.390625q-0.515625 0.390625 -0.515625 0.953125l-1.453125 0q0 -0.640625 0.4375 -1.21875q0.453125 -0.59375 1.21875 -0.9375q0.78125 -0.34375 1.703125 -0.34375q1.453125 0 2.28125 0.734375q0.828125 0.71875 0.859375 2.0l0 3.890625q0 1.171875 0.296875 1.859375l0 0.125l-1.515625 0zm-2.390625 -1.109375q0.671875 0 1.28125 -0.34375q0.609375 -0.359375 0.890625 -0.921875l0 -1.734375l-1.140625 0q-2.65625 0 -2.65625 1.5625q0 0.671875 0.453125 1.0625q0.453125 0.375 1.171875 0.375zm7.453125 1.109375l-1.453125 0l0 -8.453125l1.453125 0l0 8.453125zm-1.5625 -10.703125q0 -0.34375 0.203125 -0.578125q0.21875 -0.25 0.640625 -0.25q0.421875 0 0.640625 0.25q0.21875 0.234375 0.21875 0.59375q0 0.34375 -0.21875 0.578125q-0.21875 0.234375 -0.640625 0.234375q-0.421875 0 -0.640625 -0.234375q-0.203125 -0.234375 -0.203125 -0.59375zm5.2421875 2.25l0.046875 1.0625q0.96875 -1.21875 2.53125 -1.21875q2.671875 0 2.703125 3.015625l0 5.59375l-1.453125 0l0 -5.59375q0 -0.921875 -0.421875 -1.359375q-0.40625 -0.4375 -1.265625 -0.4375q-0.703125 0 -1.234375 0.375q-0.53125 0.375 -0.828125 0.984375l0 6.03125l-1.453125 0l0 -8.453125l1.375 0zm10.96875 8.609375q-1.71875 0 -2.796875 -1.125q-1.078125 -1.140625 -1.078125 -3.03125l0 -0.265625q0 -1.25 0.46875 -2.234375q0.484375 -1.0 1.34375 -1.546875q0.875 -0.5625 1.875 -0.5625q1.65625 0 2.5625 1.09375q0.921875 1.078125 0.921875 3.09375l0 0.609375l-5.734375 0q0.03125 1.25 0.734375 2.015625q0.703125 0.765625 1.78125 0.765625q0.765625 0 1.296875 -0.3125q0.53125 -0.3125 0.921875 -0.828125l0.890625 0.6875q-1.0625 1.640625 -3.1875 1.640625zm-0.1875 -7.578125q-0.875 0 -1.46875 0.640625q-0.59375 0.625 -0.734375 1.78125l4.234375 0l0 -0.109375q-0.0625 -1.109375 -0.59375 -1.703125q-0.53125 -0.609375 -1.4375 -0.609375zm9.2421875 0.265625q-0.328125 -0.0625 -0.71875 -0.0625q-1.421875 0 -1.921875 1.21875l0 6.0l-1.453125 0l0 -8.453125l1.40625 0l0.03125 0.96875q0.703125 -1.125 2.015625 -1.125q0.421875 0 0.640625 0.109375l0 1.34375z" fill-rule="nonzero"/><path fill="#434343" d="m564.43964 202.70004q-1.921875 -0.546875 -2.8125 -1.359375q-0.875 -0.8125 -0.875 -2.0q0 -1.34375 1.078125 -2.21875q1.078125 -0.875 2.796875 -0.875q1.171875 0 2.078125 0.453125q0.921875 0.453125 1.421875 1.25q0.515625 0.796875 0.515625 1.734375l-1.515625 0q0 -1.03125 -0.65625 -1.609375q-0.65625 -0.59375 -1.84375 -0.59375q-1.109375 0 -1.734375 0.484375q-0.625 0.484375 -0.625 1.359375q0 0.6875 0.59375 1.171875q0.59375 0.484375 2.0 0.890625q1.421875 0.390625 2.21875 0.875q0.8125 0.46875 1.1875 1.109375q0.390625 0.640625 0.390625 1.515625q0 1.375 -1.078125 2.21875q-1.078125 0.828125 -2.875 0.828125q-1.171875 0 -2.1875 -0.453125q-1.015625 -0.453125 -1.578125 -1.234375q-0.546875 -0.78125 -0.546875 -1.765625l1.515625 0q0 1.03125 0.75 1.625q0.765625 0.59375 2.046875 0.59375q1.1875 0 1.8125 -0.484375q0.640625 -0.484375 0.640625 -1.3125q0 -0.84375 -0.59375 -1.296875q-0.578125 -0.453125 -2.125 -0.90625zm7.8828125 -5.421875l0 2.046875l1.578125 0l0 1.109375l-1.578125 0l0 5.25q0 0.5 0.203125 0.765625q0.21875 0.25 0.71875 0.25q0.25 0 0.6875 -0.09375l0 1.171875q-0.5625 0.15625 -1.109375 0.15625q-0.96875 0 -1.46875 -0.578125q-0.484375 -0.59375 -0.484375 -1.671875l0 -5.25l-1.53125 0l0 -1.109375l1.53125 0l0 -2.046875l1.453125 0zm7.3515625 3.34375q-0.328125 -0.0625 -0.71875 -0.0625q-1.421875 0 -1.921875 1.21875l0 6.0l-1.453125 0l0 -8.453125l1.40625 0l0.03125 0.96875q0.703125 -1.125 2.015625 -1.125q0.421875 0 0.640625 0.109375l0 1.34375zm6.5390625 6.3125q-0.84375 1.0 -2.46875 1.0q-1.359375 0 -2.0625 -0.78125q-0.703125 -0.796875 -0.71875 -2.328125l0 -5.5l1.453125 0l0 5.453125q0 1.921875 1.5625 1.921875q1.65625 0 2.203125 -1.234375l0 -6.140625l1.4375 0l0 8.453125l-1.375 0l-0.03125 -0.84375zm6.9921875 -0.1875q0.78125 0 1.359375 -0.46875q0.578125 -0.46875 0.640625 -1.171875l1.359375 0q-0.03125 0.734375 -0.5 1.390625q-0.453125 0.65625 -1.234375 1.046875q-0.765625 0.390625 -1.625 0.390625q-1.71875 0 -2.75 -1.15625q-1.015625 -1.15625 -1.015625 -3.15625l0 -0.234375q0 -1.234375 0.453125 -2.1875q0.453125 -0.96875 1.296875 -1.5q0.859375 -0.53125 2.015625 -0.53125q1.421875 0 2.359375 0.859375q0.9375 0.84375 1.0 2.203125l-1.359375 0q-0.0625 -0.828125 -0.625 -1.34375q-0.5625 -0.53125 -1.375 -0.53125q-1.109375 0 -1.71875 0.796875q-0.59375 0.78125 -0.59375 2.28125l0 0.28125q0 1.453125 0.59375 2.25q0.609375 0.78125 1.71875 0.78125zm6.953125 -9.46875l0 2.046875l1.578125 0l0 1.109375l-1.578125 0l0 5.25q0 0.5 0.203125 0.765625q0.21875 0.25 0.71875 0.25q0.25 0 0.6875 -0.09375l0 1.171875q-0.5625 0.15625 -1.109375 0.15625q-0.96875 0 -1.46875 -0.578125q-0.484375 -0.59375 -0.484375 -1.671875l0 -5.25l-1.53125 0l0 -1.109375l1.53125 0l0 -2.046875l1.453125 0zm8.4765625 9.65625q-0.84375 1.0 -2.46875 1.0q-1.359375 0 -2.0625 -0.78125q-0.703125 -0.796875 -0.71875 -2.328125l0 -5.5l1.453125 0l0 5.453125q0 1.921875 1.5625 1.921875q1.65625 0 2.203125 -1.234375l0 -6.140625l1.4375 0l0 8.453125l-1.375 0l-0.03125 -0.84375zm7.6953125 -6.3125q-0.328125 -0.0625 -0.71875 -0.0625q-1.421875 0 -1.921875 1.21875l0 6.0l-1.453125 0l0 -8.453125l1.40625 0l0.03125 0.96875q0.703125 -1.125 2.015625 -1.125q0.421875 0 0.640625 0.109375l0 1.34375zm4.6875 7.3125q-1.71875 0 -2.796875 -1.125q-1.078125 -1.140625 -1.078125 -3.03125l0 -0.265625q0 -1.25 0.46875 -2.234375q0.484375 -1.0 1.34375 -1.546875q0.875 -0.5625 1.875 -0.5625q1.65625 0 2.5625 1.09375q0.921875 1.078125 0.921875 3.09375l0 0.609375l-5.734375 0q0.03125 1.25 0.734375 2.015625q0.703125 0.765625 1.78125 0.765625q0.765625 0 1.296875 -0.3125q0.53125 -0.3125 0.921875 -0.828125l0.890625 0.6875q-1.0625 1.640625 -3.1875 1.640625zm-0.1875 -7.578125q-0.875 0 -1.46875 0.640625q-0.59375 0.625 -0.734375 1.78125l4.234375 0l0 -0.109375q-0.0625 -1.109375 -0.59375 -1.703125q-0.53125 -0.609375 -1.4375 -0.609375z" fill-rule="nonzero"/></g><path fill="#000000" fill-opacity="0.0" d="m470.14813 155.13148l79.37012 -66.92913l25.417297 30.236221l-79.37009 66.92913z" fill-rule="evenodd"/><path fill="#434343" d="m516.32086 136.95952l-3.105713 2.6188965l7.1083374 8.456055l-2.090332 1.7627106l-7.108368 -8.456055l-3.0698853 2.5886688l-1.4277039 -1.6983795l8.26593 -6.970276l1.4277344 1.6983795zm11.13208 5.308304q-1.6604004 1.4001007 -3.5541992 1.2597809q-1.9038696 -0.15228271 -3.3215332 -1.8386993l-0.17089844 -0.20333862q-0.9552002 -1.1362457 -1.269165 -2.3839264q-0.3121338 -1.2697296 0.085998535 -2.4230194q0.40008545 -1.1753082 1.4273071 -2.041565q1.5528564 -1.3094482 3.2612305 -1.0740509q1.6983643 0.22341919 3.206482 2.0174866l0.6837158 0.8133087l-4.789978 4.039139q0.7189331 0.66096497 1.5907593 0.70248413q0.8617554 0.029556274 1.6142578 -0.60502625q1.1586914 -0.9770355 1.1018066 -2.3802338l1.9264526 0.27630615q0.08905029 1.0286255 -0.3857422 2.04216q-0.4628296 1.0034637 -1.4064941 1.7991943zm-5.4350586 -6.004135q-0.59729004 0.5036316 -0.6376953 1.232605q-0.028442383 0.71891785 0.50946045 1.553009l2.795105 -2.35701l-0.14074707 -0.16744995q-0.5750122 -0.65971375 -1.2349854 -0.7163391q-0.65808105 -0.07867432 -1.2911377 0.45518494zm11.883301 -3.2350006q-0.31170654 -0.37077332 -0.8629761 -0.2738037q-0.53930664 0.086883545 -1.4803467 0.5943146q-3.1721191 1.7142639 -4.619934 -0.008041382q-0.8446045 -1.0046692 -0.57147217 -2.379547q0.27313232 -1.3748779 1.6109619 -2.503006q1.4333496 -1.2087173 2.866516 -1.2522049q1.4230957 -0.05544281 2.327942 1.0210037l-2.0067139 1.6921997q-0.3619995 -0.4305725 -0.8798828 -0.46392822q-0.51605225 -0.055374146 -1.1013794 0.43818665q-0.51361084 0.43312073 -0.5973511 0.89204407q-0.0836792 0.45892334 0.21795654 0.81773376q0.28149414 0.33488464 0.7630005 0.27633667q0.49346924 -0.06863403 1.376709 -0.5477295q0.87316895 -0.49105835 1.5476685 -0.73280334q2.0812988 -0.7536011 3.2979126 0.6936188q0.864624 1.028595 0.52368164 2.4198303q-0.35107422 1.3792877 -1.7486572 2.557785q-0.94366455 0.79574585 -1.9657593 1.0853424q-1.0202026 0.26757812 -1.9309082 0.034057617q-0.9107666 -0.23352051 -1.4938965 -0.9272156l1.899231 -1.6015625q0.48828125 0.50801086 1.0998535 0.48280334q0.6116333 -0.02519226 1.2208252 -0.53889465q0.58532715 -0.4935608 0.690979 -0.95059204q0.10760498 -0.47906494 -0.18395996 -0.82592773zm-0.49243164 -12.0933l1.5584106 1.8538742l1.2901001 -1.0878525l1.2467041 1.4831009l-1.2900391 1.0878448l3.1671143 3.7675476q0.35186768 0.41862488 0.657959 0.4670868q0.3180542 0.038391113 0.77197266 -0.3443756q0.33447266 -0.28203583 0.55700684 -0.5514755l1.2869873 1.5309372q-0.44647217 0.68304443 -1.067627 1.2068176q-2.1261597 1.7929382 -3.961731 -0.31776428l-3.418457 -4.0665665l-1.098938 0.9266815l-1.2467041 -1.4830933l1.098938 -0.92668915l-1.5584106 -1.8538742l2.0067139 -1.6921997z" fill-rule="nonzero"/><path fill="#eeeeee" d="m724.46454 143.39493l0 0c0 -16.87909 13.683228 -30.562286 30.562317 -30.562286l122.24548 0l0 0c8.105652 0 15.879272 3.2199402 21.61084 8.951485c5.7315063 5.7315445 8.951477 13.50518 8.951477 21.610802l0 225.14313c0 16.87909 -13.683228 30.562286 -30.562317 30.562286l-122.24548 0c-16.87909 0 -30.562317 -13.683197 -30.562317 -30.562286z" fill-rule="evenodd"/><path stroke="#434343" stroke-width="3.0" stroke-linejoin="round" stroke-linecap="butt" d="m724.46454 143.39493l0 0c0 -16.87909 13.683228 -30.562286 30.562317 -30.562286l122.24548 0l0 0c8.105652 0 15.879272 3.2199402 21.61084 8.951485c5.7315063 5.7315445 8.951477 13.50518 8.951477 21.610802l0 225.14313c0 16.87909 -13.683228 30.562286 -30.562317 30.562286l-122.24548 0c-16.87909 0 -30.562317 -13.683197 -30.562317 -30.562286z" fill-rule="evenodd"/><g filter="url(#shadowFilter-g33d079c3c0_0_0.8)"><use xlink:href="#g33d079c3c0_0_0.8" transform="matrix(1.0 0.0 0.0 1.0 0.0 2.0)"/></g><defs><filter id="shadowFilter-g33d079c3c0_0_0.8" filterUnits="userSpaceOnUse"><feGaussianBlur in="SourceAlpha" stdDeviation="2.0" result="blur"/><feComponentTransfer in="blur" color-interpolation-filters="sRGB"><feFuncR type="linear" slope="0" intercept="0.0"/><feFuncG type="linear" slope="0" intercept="0.0"/><feFuncB type="linear" slope="0" intercept="0.0"/><feFuncA type="linear" slope="0.5" intercept="0"/></feComponentTransfer></filter></defs><g id="g33d079c3c0_0_0.8"><path fill="#b7b7b7" d="m763.3307 160.27643l105.63782 0l0 64.28346l-105.63782 0z" fill-rule="evenodd"/><path stroke="#434343" stroke-width="1.0" stroke-linejoin="round" stroke-linecap="butt" d="m763.3307 160.27643l105.63782 0l0 64.28346l-105.63782 0z" fill-rule="evenodd"/><path fill="#434343" d="m793.6691 194.3563l-0.90625 0.953125l0 2.96875l-1.4375 0l0 -12.0l1.4375 0l0 7.25l0.78125 -0.921875l2.625 -2.78125l1.765625 0l-3.296875 3.53125l3.671875 4.921875l-1.6875 0l-2.953125 -3.921875zm10.96875 3.078125q-0.84375 1.0 -2.46875 1.0q-1.359375 0 -2.0625 -0.78125q-0.703125 -0.796875 -0.71875 -2.328125l0 -5.5l1.453125 0l0 5.453125q0 1.921875 1.5625 1.921875q1.65625 0 2.203125 -1.234375l0 -6.140625l1.4375 0l0 8.453125l-1.375 0l-0.03125 -0.84375zm10.7578125 -3.296875q0 1.9375 -0.890625 3.125q-0.890625 1.171875 -2.390625 1.171875q-1.59375 0 -2.46875 -1.140625l-0.078125 0.984375l-1.328125 0l0 -12.0l1.453125 0l0 4.46875q0.875 -1.078125 2.40625 -1.078125q1.546875 0 2.421875 1.171875q0.875 1.15625 0.875 3.171875l0 0.125zm-1.4375 -0.15625q0 -1.484375 -0.578125 -2.28125q-0.5625 -0.8125 -1.640625 -0.8125q-1.421875 0 -2.046875 1.328125l0 3.65625q0.65625 1.328125 2.0625 1.328125q1.046875 0 1.625 -0.796875q0.578125 -0.8125 0.578125 -2.421875zm6.7734375 4.453125q-1.71875 0 -2.796875 -1.125q-1.078125 -1.140625 -1.078125 -3.03125l0 -0.265625q0 -1.25 0.46875 -2.234375q0.484375 -1.0 1.34375 -1.546875q0.875 -0.5625 1.875 -0.5625q1.65625 0 2.5625 1.09375q0.921875 1.078125 0.921875 3.09375l0 0.609375l-5.734375 0q0.03125 1.25 0.734375 2.015625q0.703125 0.765625 1.78125 0.765625q0.765625 0 1.296875 -0.3125q0.53125 -0.3125 0.921875 -0.828125l0.890625 0.6875q-1.0625 1.640625 -3.1875 1.640625zm-0.1875 -7.578125q-0.875 0 -1.46875 0.640625q-0.59375 0.625 -0.734375 1.78125l4.234375 0l0 -0.109375q-0.0625 -1.109375 -0.59375 -1.703125q-0.53125 -0.609375 -1.4375 -0.609375zm8.5390625 6.390625q0.78125 0 1.359375 -0.46875q0.578125 -0.46875 0.640625 -1.171875l1.359375 0q-0.03125 0.734375 -0.5 1.390625q-0.453125 0.65625 -1.234375 1.046875q-0.765625 0.390625 -1.625 0.390625q-1.71875 0 -2.75 -1.15625q-1.015625 -1.15625 -1.015625 -3.15625l0 -0.234375q0 -1.234375 0.453125 -2.1875q0.453125 -0.96875 1.296875 -1.5q0.859375 -0.53125 2.015625 -0.53125q1.421875 0 2.359375 0.859375q0.9375 0.84375 1.0 2.203125l-1.359375 0q-0.0625 -0.828125 -0.625 -1.34375q-0.5625 -0.53125 -1.375 -0.53125q-1.109375 0 -1.71875 0.796875q-0.59375 0.78125 -0.59375 2.28125l0 0.28125q0 1.453125 0.59375 2.25q0.609375 0.78125 1.71875 0.78125zm6.953125 -9.46875l0 2.046875l1.578125 0l0 1.109375l-1.578125 0l0 5.25q0 0.5 0.203125 0.765625q0.21875 0.25 0.71875 0.25q0.25 0 0.6875 -0.09375l0 1.171875q-0.5625 0.15625 -1.109375 0.15625q-0.96875 0 -1.46875 -0.578125q-0.484375 -0.59375 -0.484375 -1.671875l0 -5.25l-1.53125 0l0 -1.109375l1.53125 0l0 -2.046875l1.453125 0zm4.8359375 10.5l-1.453125 0l0 -12.0l1.453125 0l0 12.0z" fill-rule="nonzero"/></g><path fill="#000000" fill-opacity="0.0" d="m700.60266 158.19206l79.370056 -66.92913l25.417358 30.236221l-79.37012 66.92913z" fill-rule="evenodd"/><path fill="#434343" d="m738.32916 161.59259l-8.536072 -10.154449l3.1176147 -2.628952q1.3378906 -1.1281433 2.9017944 -1.4045563q1.5657959 -0.2984314 3.0861816 0.32032776q1.5322876 0.60868835 2.718689 2.0200348l0.39208984 0.46644592q1.1964722 1.4232941 1.5361938 3.0172272q0.33966064 1.5939178 -0.21069336 3.1003723q-0.5484009 1.4844208 -1.8642578 2.614441l-3.1415405 2.649109zm-5.0180054 -10.218765l5.690735 6.769623l1.0033569 -0.84609985q1.2303467 -1.0374908 1.2017212 -2.3827667q-0.028564453 -1.3452759 -1.2633667 -2.83844l-0.4524536 -0.53822327q-1.3070679 -1.5548553 -2.6156616 -1.8003235q-1.3067017 -0.26750183 -2.5370483 0.76997375l-1.0272827 0.8662567zm17.740417 -0.26419067q-1.6603394 1.4001007 -3.5541992 1.2597809q-1.9038696 -0.15228271 -3.3215332 -1.8387146l-0.17089844 -0.20332336q-0.95513916 -1.1362457 -1.269165 -2.3839264q-0.31207275 -1.2697296 0.08605957 -2.4230194q0.4000244 -1.1753082 1.4273071 -2.041565q1.5527954 -1.3094482 3.2612305 -1.0740662q1.6983032 0.22343445 3.206421 2.0175018l0.6837158 0.8133087l-4.789917 4.039139q0.7188721 0.66096497 1.5906982 0.70248413q0.8617554 0.029556274 1.6143188 -0.60502625q1.1586304 -0.9770355 1.1017456 -2.3802338l1.9265137 0.2762909q0.08898926 1.0286255 -0.38580322 2.0421753q-0.4628296 1.0034637 -1.4064941 1.7991943zm-5.4350586 -6.004135q-0.59729004 0.5036316 -0.6376343 1.232605q-0.028442383 0.7189026 0.5093994 1.5529938l2.795105 -2.3569946l-0.14074707 -0.16744995q-0.5750122 -0.65971375 -1.2349854 -0.7163391q-0.65808105 -0.07867432 -1.2911377 0.45518494zm13.227417 -7.148117q1.4679565 1.7462311 1.5524292 3.4736176q0.09637451 1.7173157 -1.2414551 2.845459q-1.1467285 0.9669647 -2.5250854 0.75990295l2.9961548 3.5642242l-2.006775 1.6921997l-8.787415 -10.453445l1.8634033 -1.5713348l0.69506836 0.68110657q-0.0053100586 -1.4875336 1.1772461 -2.484726q1.3856201 -1.1684265 3.0266724 -0.79455566q1.6411133 0.3738861 3.1693726 2.1918793l0.0803833 0.09567261zm-2.1393433 1.5587616q-0.8847656 -1.0525208 -1.7276001 -1.302414q-0.8529053 -0.26185608 -1.5695801 0.34249878q-0.94366455 0.79574585 -0.6987915 1.8155518l2.5940552 3.0858002q1.0036621 0.44125366 1.9473267 -0.35447693q1.4453735 -1.2187958 -0.54541016 -3.5869598zm8.627136 -0.69358826l-2.0306396 1.7123413l-9.008606 -10.716583l2.0306396 -1.7123413l9.008606 10.716583zm-1.8946533 -4.96315q-0.9451294 -1.1242828 -1.2490234 -2.3600159q-0.302063 -1.2577667 0.10803223 -2.4211273q0.4100952 -1.163353 1.4731445 -2.0598145q1.5289917 -1.289299 3.2807617 -1.1722717q1.75177 0.11703491 3.206543 1.6290817l0.4442749 0.5042267q1.4578857 1.7342758 1.3751221 3.6026688q-0.08276367 1.8684082 -1.7192383 3.2483673q-1.6245117 1.369873 -3.4786987 1.1552734q-1.852356 -0.2366333 -3.3705444 -2.0426636l-0.070373535 -0.083724976zm2.1393433 -1.5587463q0.9049072 1.0764313 1.7936401 1.308075q0.8786621 0.21966553 1.6312256 -0.414917q0.7286377 -0.61442566 0.6621704 -1.519043q-0.05444336 -0.91467285 -1.0900269 -2.1466064q-0.8847656 -1.0525208 -1.7854614 -1.2740784q-0.8988037 -0.24359131 -1.6513062 0.39097595q-0.72869873 0.6144409 -0.6522217 1.5310059q0.07647705 0.9165802 1.09198 2.124588zm9.784546 -6.799713l-2.553772 -5.8789597l2.1620483 -1.8231506l4.295532 11.277641l0.16455078 0.53570557q0.56585693 2.0572357 -0.9869385 3.366684q-0.4300537 0.36260986 -0.9945679 0.6138153l-1.2869263 -1.5309448l0.3086548 -0.2398529q0.57336426 -0.48349 0.69732666 -0.89456177q0.13586426 -0.42115784 -0.028747559 -0.9568634l-0.2838745 -0.82341003l-9.004211 -5.3449173l2.1620483 -1.8231506l5.348877 3.521965z" fill-rule="nonzero"/><g filter="url(#shadowFilter-g33d079c3c0_0_0.9)"><use xlink:href="#g33d079c3c0_0_0.9" transform="matrix(1.0 0.0 0.0 1.0 0.0 2.0)"/></g><defs><filter id="shadowFilter-g33d079c3c0_0_0.9" filterUnits="userSpaceOnUse"><feGaussianBlur in="SourceAlpha" stdDeviation="2.0" result="blur"/><feComponentTransfer in="blur" color-interpolation-filters="sRGB"><feFuncR type="linear" slope="0" intercept="0.0"/><feFuncG type="linear" slope="0" intercept="0.0"/><feFuncB type="linear" slope="0" intercept="0.0"/><feFuncA type="linear" slope="0.5" intercept="0"/></feComponentTransfer></filter></defs><g id="g33d079c3c0_0_0.9"><path fill="#b7b7b7" d="m763.3307 236.5179l105.63782 0l0 64.28346l-105.63782 0z" fill-rule="evenodd"/><path stroke="#434343" stroke-width="1.0" stroke-linejoin="round" stroke-linecap="butt" d="m763.3307 236.5179l105.63782 0l0 64.28346l-105.63782 0z" fill-rule="evenodd"/><path fill="#434343" d="m782.8215 270.59775l-0.90625 0.953125l0 2.96875l-1.4375 0l0 -12.0l1.4375 0l0 7.25l0.78125 -0.921875l2.625 -2.78125l1.765625 0l-3.296875 3.53125l3.671875 4.921875l-1.6875 0l-2.953125 -3.921875zm10.96875 3.078125q-0.84375 1.0 -2.46875 1.0q-1.359375 0 -2.0625 -0.78125q-0.703125 -0.796875 -0.71875 -2.328125l0 -5.5l1.453125 0l0 5.453125q0 1.921875 1.5625 1.921875q1.65625 0 2.203125 -1.234375l0 -6.140625l1.4375 0l0 8.453125l-1.375 0l-0.03125 -0.84375zm8.5234375 -1.40625q0 -0.578125 -0.4375 -0.90625q-0.4375 -0.328125 -1.546875 -0.5625q-1.09375 -0.234375 -1.734375 -0.5625q-0.640625 -0.328125 -0.953125 -0.78125q-0.3125 -0.453125 -0.3125 -1.078125q0 -1.03125 0.875 -1.75q0.890625 -0.71875 2.25 -0.71875q1.4375 0 2.328125 0.75q0.90625 0.734375 0.90625 1.890625l-1.453125 0q0 -0.59375 -0.515625 -1.015625q-0.5 -0.4375 -1.265625 -0.4375q-0.78125 0 -1.234375 0.34375q-0.4375 0.34375 -0.4375 0.890625q0 0.53125 0.40625 0.796875q0.421875 0.265625 1.5 0.515625q1.078125 0.234375 1.75 0.578125q0.671875 0.328125 1.0 0.796875q0.328125 0.46875 0.328125 1.15625q0 1.125 -0.90625 1.8125q-0.90625 0.6875 -2.359375 0.6875q-1.015625 0 -1.796875 -0.359375q-0.78125 -0.359375 -1.21875 -1.0q-0.4375 -0.65625 -0.4375 -1.40625l1.4375 0q0.046875 0.734375 0.578125 1.15625q0.546875 0.421875 1.4375 0.421875q0.828125 0 1.3125 -0.328125q0.5 -0.328125 0.5 -0.890625zm5.296875 -8.25l0 2.046875l1.578125 0l0 1.109375l-1.578125 0l0 5.25q0 0.5 0.203125 0.765625q0.21875 0.25 0.71875 0.25q0.25 0 0.6875 -0.09375l0 1.171875q-0.5625 0.15625 -1.109375 0.15625q-0.96875 0 -1.46875 -0.578125q-0.484375 -0.59375 -0.484375 -1.671875l0 -5.25l-1.53125 0l0 -1.109375l1.53125 0l0 -2.046875l1.453125 0zm2.7265625 6.1875q0 -1.234375 0.484375 -2.21875q0.484375 -1.0 1.359375 -1.53125q0.875 -0.546875 1.984375 -0.546875q1.734375 0 2.796875 1.203125q1.0625 1.1875 1.0625 3.171875l0 0.09375q0 1.234375 -0.46875 2.21875q-0.46875 0.984375 -1.359375 1.53125q-0.875 0.546875 -2.015625 0.546875q-1.71875 0 -2.78125 -1.1875q-1.0625 -1.203125 -1.0625 -3.171875l0 -0.109375zm1.453125 0.171875q0 1.40625 0.640625 2.265625q0.65625 0.84375 1.75 0.84375q1.109375 0 1.75 -0.859375q0.65625 -0.859375 0.65625 -2.421875q0 -1.390625 -0.671875 -2.25q-0.65625 -0.859375 -1.75 -0.859375q-1.0625 0 -1.71875 0.859375q-0.65625 0.84375 -0.65625 2.421875zm9.40625 -4.3125l0.046875 0.9375q0.921875 -1.09375 2.5 -1.09375q1.78125 0 2.421875 1.359375q0.421875 -0.609375 1.09375 -0.984375q0.671875 -0.375 1.59375 -0.375q2.78125 0 2.828125 2.9375l0 5.671875l-1.4375 0l0 -5.578125q0 -0.90625 -0.421875 -1.359375q-0.40625 -0.453125 -1.390625 -0.453125q-0.796875 0 -1.328125 0.484375q-0.53125 0.484375 -0.625 1.296875l0 5.609375l-1.453125 0l0 -5.546875q0 -1.84375 -1.796875 -1.84375q-1.421875 0 -1.953125 1.21875l0 6.171875l-1.4375 0l0 -8.453125l1.359375 0zm14.2421875 8.453125l-1.453125 0l0 -8.453125l1.453125 0l0 8.453125zm-1.5625 -10.703125q0 -0.34375 0.203125 -0.578125q0.21875 -0.25 0.640625 -0.25q0.421875 0 0.640625 0.25q0.21875 0.234375 0.21875 0.59375q0 0.34375 -0.21875 0.578125q-0.21875 0.234375 -0.640625 0.234375q-0.421875 0 -0.640625 -0.234375q-0.203125 -0.234375 -0.203125 -0.59375zm5.2265625 9.515625l4.953125 0l0 1.1875l-6.71875 0l0 -1.0625l4.671875 -6.203125l-4.59375 0l0 -1.1875l6.40625 0l0 1.015625l-4.71875 6.25zm9.9609375 1.34375q-1.71875 0 -2.796875 -1.125q-1.078125 -1.140625 -1.078125 -3.03125l0 -0.265625q0 -1.25 0.46875 -2.234375q0.484375 -1.0 1.34375 -1.546875q0.875 -0.5625 1.875 -0.5625q1.65625 0 2.5625 1.09375q0.921875 1.078125 0.921875 3.09375l0 0.609375l-5.734375 0q0.03125 1.25 0.734375 2.015625q0.703125 0.765625 1.78125 0.765625q0.765625 0 1.296875 -0.3125q0.53125 -0.3125 0.921875 -0.828125l0.890625 0.6875q-1.0625 1.640625 -3.1875 1.640625zm-0.1875 -7.578125q-0.875 0 -1.46875 0.640625q-0.59375 0.625 -0.734375 1.78125l4.234375 0l0 -0.109375q-0.0625 -1.109375 -0.59375 -1.703125q-0.53125 -0.609375 -1.4375 -0.609375z" fill-rule="nonzero"/></g><g filter="url(#shadowFilter-g33d079c3c0_0_0.10)"><use xlink:href="#g33d079c3c0_0_0.10" transform="matrix(1.0 0.0 0.0 1.0 0.0 2.0)"/></g><defs><filter id="shadowFilter-g33d079c3c0_0_0.10" filterUnits="userSpaceOnUse"><feGaussianBlur in="SourceAlpha" stdDeviation="2.0" result="blur"/><feComponentTransfer in="blur" color-interpolation-filters="sRGB"><feFuncR type="linear" slope="0" intercept="0.0"/><feFuncG type="linear" slope="0" intercept="0.0"/><feFuncB type="linear" slope="0" intercept="0.0"/><feFuncA type="linear" slope="0.5" intercept="0"/></feComponentTransfer></filter></defs><g id="g33d079c3c0_0_0.10"><path fill="#b7b7b7" d="m763.3307 312.75937l105.63782 0l0 64.28348l-105.63782 0z" fill-rule="evenodd"/><path stroke="#434343" stroke-width="1.0" stroke-linejoin="round" stroke-linecap="butt" d="m763.3307 312.75937l105.63782 0l0 64.28348l-105.63782 0z" fill-rule="evenodd"/><path fill="#434343" d="m801.0988 343.3236q0.953125 -1.171875 2.5 -1.171875q2.671875 0 2.703125 3.015625l0 5.59375l-1.453125 0l0 -5.59375q0 -0.921875 -0.421875 -1.359375q-0.40625 -0.4375 -1.265625 -0.4375q-0.703125 0 -1.234375 0.375q-0.53125 0.375 -0.828125 0.984375l0 6.03125l-1.453125 0l0 -12.0l1.453125 0l0 4.5625zm10.875 7.59375q-1.71875 0 -2.796875 -1.125q-1.078125 -1.140625 -1.078125 -3.03125l0 -0.265625q0 -1.25 0.46875 -2.234375q0.484375 -1.0 1.34375 -1.546875q0.875 -0.5625 1.875 -0.5625q1.65625 0 2.5625 1.09375q0.921875 1.078125 0.921875 3.09375l0 0.609375l-5.734375 0q0.03125 1.25 0.734375 2.015625q0.703125 0.765625 1.78125 0.765625q0.765625 0 1.296875 -0.3125q0.53125 -0.3125 0.921875 -0.828125l0.890625 0.6875q-1.0625 1.640625 -3.1875 1.640625zm-0.1875 -7.578125q-0.875 0 -1.46875 0.640625q-0.59375 0.625 -0.734375 1.78125l4.234375 0l0 -0.109375q-0.0625 -1.109375 -0.59375 -1.703125q-0.53125 -0.609375 -1.4375 -0.609375zm6.7265625 7.421875l-1.453125 0l0 -12.0l1.453125 0l0 12.0zm3.6640625 -8.453125l0.046875 0.9375q0.921875 -1.09375 2.5 -1.09375q1.78125 0 2.421875 1.359375q0.421875 -0.609375 1.09375 -0.984375q0.671875 -0.375 1.59375 -0.375q2.78125 0 2.828125 2.9375l0 5.671875l-1.4375 0l0 -5.578125q0 -0.90625 -0.421875 -1.359375q-0.40625 -0.453125 -1.390625 -0.453125q-0.796875 0 -1.328125 0.484375q-0.53125 0.484375 -0.625 1.296875l0 5.609375l-1.453125 0l0 -5.546875q0 -1.84375 -1.796875 -1.84375q-1.421875 0 -1.953125 1.21875l0 6.171875l-1.4375 0l0 -8.453125l1.359375 0z" fill-rule="nonzero"/></g></g></svg>